<svg width="510" height="564" viewBox="0 0 510 564" fill="none" xmlns="http://www.w3.org/2000/svg">
<path d="M115.92 532.864C115.92 534.328 115.584 535.672 114.912 536.896C114.24 538.096 113.208 539.068 111.816 539.812C110.424 540.556 108.696 540.928 106.632 540.928H102.816V550H96.6597V524.728H106.632C108.648 524.728 110.352 525.076 111.744 525.772C113.136 526.468 114.18 527.428 114.876 528.652C115.572 529.876 115.92 531.28 115.92 532.864ZM106.164 536.032C107.34 536.032 108.216 535.756 108.792 535.204C109.368 534.652 109.656 533.872 109.656 532.864C109.656 531.856 109.368 531.076 108.792 530.524C108.216 529.972 107.34 529.696 106.164 529.696H102.816V536.032H106.164ZM117.901 539.92C117.901 537.856 118.285 536.044 119.053 534.484C119.845 532.924 120.913 531.724 122.257 530.884C123.601 530.044 125.101 529.624 126.757 529.624C128.173 529.624 129.409 529.912 130.465 530.488C131.545 531.064 132.373 531.82 132.949 532.756V529.912H139.105V550H132.949V547.156C132.349 548.092 131.509 548.848 130.429 549.424C129.373 550 128.137 550.288 126.721 550.288C125.089 550.288 123.601 549.868 122.257 549.028C120.913 548.164 119.845 546.952 119.053 545.392C118.285 543.808 117.901 541.984 117.901 539.92ZM132.949 539.956C132.949 538.42 132.517 537.208 131.653 536.32C130.813 535.432 129.781 534.988 128.557 534.988C127.333 534.988 126.289 535.432 125.425 536.32C124.585 537.184 124.165 538.384 124.165 539.92C124.165 541.456 124.585 542.68 125.425 543.592C126.289 544.48 127.333 544.924 128.557 544.924C129.781 544.924 130.813 544.48 131.653 543.592C132.517 542.704 132.949 541.492 132.949 539.956ZM151.19 529.624C152.606 529.624 153.842 529.912 154.898 530.488C155.978 531.064 156.806 531.82 157.382 532.756V529.912H163.538V549.964C163.538 551.812 163.166 553.48 162.422 554.968C161.702 556.48 160.586 557.68 159.074 558.568C157.586 559.456 155.726 559.9 153.494 559.9C150.518 559.9 148.106 559.192 146.258 557.776C144.41 556.384 143.354 554.488 143.09 552.088H149.174C149.366 552.856 149.822 553.456 150.542 553.888C151.262 554.344 152.15 554.572 153.206 554.572C154.478 554.572 155.486 554.2 156.23 553.456C156.998 552.736 157.382 551.572 157.382 549.964V547.12C156.782 548.056 155.954 548.824 154.898 549.424C153.842 550 152.606 550.288 151.19 550.288C149.534 550.288 148.034 549.868 146.69 549.028C145.346 548.164 144.278 546.952 143.486 545.392C142.718 543.808 142.334 541.984 142.334 539.92C142.334 537.856 142.718 536.044 143.486 534.484C144.278 532.924 145.346 531.724 146.69 530.884C148.034 530.044 149.534 529.624 151.19 529.624ZM157.382 539.956C157.382 538.42 156.95 537.208 156.086 536.32C155.246 535.432 154.214 534.988 152.99 534.988C151.766 534.988 150.722 535.432 149.858 536.32C149.018 537.184 148.598 538.384 148.598 539.92C148.598 541.456 149.018 542.68 149.858 543.592C150.722 544.48 151.766 544.924 152.99 544.924C154.214 544.924 155.246 544.48 156.086 543.592C156.95 542.704 157.382 541.492 157.382 539.956ZM186.928 539.632C186.928 540.208 186.892 540.808 186.82 541.432H172.888C172.984 542.68 173.38 543.64 174.076 544.312C174.796 544.96 175.672 545.284 176.704 545.284C178.24 545.284 179.308 544.636 179.908 543.34H186.46C186.124 544.66 185.512 545.848 184.624 546.904C183.76 547.96 182.668 548.788 181.348 549.388C180.028 549.988 178.552 550.288 176.92 550.288C174.952 550.288 173.2 549.868 171.664 549.028C170.128 548.188 168.928 546.988 168.064 545.428C167.2 543.868 166.768 542.044 166.768 539.956C166.768 537.868 167.188 536.044 168.028 534.484C168.892 532.924 170.092 531.724 171.628 530.884C173.164 530.044 174.928 529.624 176.92 529.624C178.864 529.624 180.592 530.032 182.104 530.848C183.616 531.664 184.792 532.828 185.632 534.34C186.496 535.852 186.928 537.616 186.928 539.632ZM180.628 538.012C180.628 536.956 180.268 536.116 179.548 535.492C178.828 534.868 177.928 534.556 176.848 534.556C175.816 534.556 174.94 534.856 174.22 535.456C173.524 536.056 173.092 536.908 172.924 538.012H180.628ZM220.412 550H214.256L203.96 534.412V550H197.804V524.728H203.96L214.256 540.388V524.728H220.412V550ZM234.019 550.288C232.051 550.288 230.275 549.868 228.691 549.028C227.131 548.188 225.895 546.988 224.983 545.428C224.095 543.868 223.651 542.044 223.651 539.956C223.651 537.892 224.107 536.08 225.019 534.52C225.931 532.936 227.179 531.724 228.763 530.884C230.347 530.044 232.123 529.624 234.091 529.624C236.059 529.624 237.835 530.044 239.419 530.884C241.003 531.724 242.251 532.936 243.163 534.52C244.075 536.08 244.531 537.892 244.531 539.956C244.531 542.02 244.063 543.844 243.127 545.428C242.215 546.988 240.955 548.188 239.347 549.028C237.763 549.868 235.987 550.288 234.019 550.288ZM234.019 544.96C235.195 544.96 236.191 544.528 237.007 543.664C237.847 542.8 238.267 541.564 238.267 539.956C238.267 538.348 237.859 537.112 237.043 536.248C236.251 535.384 235.267 534.952 234.091 534.952C232.891 534.952 231.895 535.384 231.103 536.248C230.311 537.088 229.915 538.324 229.915 539.956C229.915 541.564 230.299 542.8 231.067 543.664C231.859 544.528 232.843 544.96 234.019 544.96ZM258.992 544.78V550H255.86C253.628 550 251.888 549.46 250.64 548.38C249.392 547.276 248.768 545.488 248.768 543.016V535.024H246.32V529.912H248.768V525.016H254.924V529.912H258.956V535.024H254.924V543.088C254.924 543.688 255.068 544.12 255.356 544.384C255.644 544.648 256.124 544.78 256.796 544.78H258.992ZM286.502 524.728V529.66H276.206V534.988H283.91V539.776H276.206V550H270.05V524.728H286.502ZM298.882 550.288C296.914 550.288 295.138 549.868 293.554 549.028C291.994 548.188 290.758 546.988 289.846 545.428C288.958 543.868 288.514 542.044 288.514 539.956C288.514 537.892 288.97 536.08 289.882 534.52C290.794 532.936 292.042 531.724 293.626 530.884C295.21 530.044 296.986 529.624 298.954 529.624C300.922 529.624 302.698 530.044 304.282 530.884C305.866 531.724 307.114 532.936 308.026 534.52C308.938 536.08 309.394 537.892 309.394 539.956C309.394 542.02 308.926 543.844 307.99 545.428C307.078 546.988 305.818 548.188 304.21 549.028C302.626 549.868 300.85 550.288 298.882 550.288ZM298.882 544.96C300.058 544.96 301.054 544.528 301.87 543.664C302.71 542.8 303.13 541.564 303.13 539.956C303.13 538.348 302.722 537.112 301.906 536.248C301.114 535.384 300.13 534.952 298.954 534.952C297.754 534.952 296.758 535.384 295.966 536.248C295.174 537.088 294.778 538.324 294.778 539.956C294.778 541.564 295.162 542.8 295.93 543.664C296.722 544.528 297.706 544.96 298.882 544.96ZM332.496 529.912V550H326.34V547.264C325.716 548.152 324.864 548.872 323.784 549.424C322.728 549.952 321.552 550.216 320.256 550.216C318.72 550.216 317.364 549.88 316.188 549.208C315.012 548.512 314.1 547.516 313.452 546.22C312.804 544.924 312.48 543.4 312.48 541.648V529.912H318.6V540.82C318.6 542.164 318.948 543.208 319.644 543.952C320.34 544.696 321.276 545.068 322.452 545.068C323.652 545.068 324.6 544.696 325.296 543.952C325.992 543.208 326.34 542.164 326.34 540.82V529.912H332.496ZM349.158 529.696C351.51 529.696 353.382 530.464 354.774 532C356.19 533.512 356.898 535.6 356.898 538.264V550H350.778V539.092C350.778 537.748 350.43 536.704 349.734 535.96C349.038 535.216 348.102 534.844 346.926 534.844C345.75 534.844 344.814 535.216 344.118 535.96C343.422 536.704 343.074 537.748 343.074 539.092V550H336.918V529.912H343.074V532.576C343.698 531.688 344.538 530.992 345.594 530.488C346.65 529.96 347.838 529.696 349.158 529.696ZM359.951 539.92C359.951 537.856 360.335 536.044 361.103 534.484C361.895 532.924 362.963 531.724 364.307 530.884C365.651 530.044 367.151 529.624 368.807 529.624C370.127 529.624 371.327 529.9 372.407 530.452C373.511 531.004 374.375 531.748 374.999 532.684V523.36H381.155V550H374.999V547.12C374.423 548.08 373.595 548.848 372.515 549.424C371.459 550 370.223 550.288 368.807 550.288C367.151 550.288 365.651 549.868 364.307 549.028C362.963 548.164 361.895 546.952 361.103 545.392C360.335 543.808 359.951 541.984 359.951 539.92ZM374.999 539.956C374.999 538.42 374.567 537.208 373.703 536.32C372.863 535.432 371.831 534.988 370.607 534.988C369.383 534.988 368.339 535.432 367.475 536.32C366.635 537.184 366.215 538.384 366.215 539.92C366.215 541.456 366.635 542.68 367.475 543.592C368.339 544.48 369.383 544.924 370.607 544.924C371.831 544.924 372.863 544.48 373.703 543.592C374.567 542.704 374.999 541.492 374.999 539.956ZM393.709 523.828L392.989 541.072H387.769L387.049 523.828H393.709ZM390.469 550.288C389.389 550.288 388.501 549.976 387.805 549.352C387.133 548.704 386.797 547.912 386.797 546.976C386.797 546.016 387.133 545.212 387.805 544.564C388.501 543.916 389.389 543.592 390.469 543.592C391.525 543.592 392.389 543.916 393.061 544.564C393.757 545.212 394.105 546.016 394.105 546.976C394.105 547.912 393.757 548.704 393.061 549.352C392.389 549.976 391.525 550.288 390.469 550.288ZM407.807 523.828L407.087 541.072H401.867L401.147 523.828H407.807ZM404.567 550.288C403.487 550.288 402.599 549.976 401.903 549.352C401.231 548.704 400.895 547.912 400.895 546.976C400.895 546.016 401.231 545.212 401.903 544.564C402.599 543.916 403.487 543.592 404.567 543.592C405.623 543.592 406.487 543.916 407.159 544.564C407.855 545.212 408.203 546.016 408.203 546.976C408.203 547.912 407.855 548.704 407.159 549.352C406.487 549.976 405.623 550.288 404.567 550.288Z" fill="#E6E6E6"/>
<path d="M117.92 532.864C117.92 534.328 117.584 535.672 116.912 536.896C116.24 538.096 115.208 539.068 113.816 539.812C112.424 540.556 110.696 540.928 108.632 540.928H104.816V550H98.6597V524.728H108.632C110.648 524.728 112.352 525.076 113.744 525.772C115.136 526.468 116.18 527.428 116.876 528.652C117.572 529.876 117.92 531.28 117.92 532.864ZM108.164 536.032C109.34 536.032 110.216 535.756 110.792 535.204C111.368 534.652 111.656 533.872 111.656 532.864C111.656 531.856 111.368 531.076 110.792 530.524C110.216 529.972 109.34 529.696 108.164 529.696H104.816V536.032H108.164ZM119.901 539.92C119.901 537.856 120.285 536.044 121.053 534.484C121.845 532.924 122.913 531.724 124.257 530.884C125.601 530.044 127.101 529.624 128.757 529.624C130.173 529.624 131.409 529.912 132.465 530.488C133.545 531.064 134.373 531.82 134.949 532.756V529.912H141.105V550H134.949V547.156C134.349 548.092 133.509 548.848 132.429 549.424C131.373 550 130.137 550.288 128.721 550.288C127.089 550.288 125.601 549.868 124.257 549.028C122.913 548.164 121.845 546.952 121.053 545.392C120.285 543.808 119.901 541.984 119.901 539.92ZM134.949 539.956C134.949 538.42 134.517 537.208 133.653 536.32C132.813 535.432 131.781 534.988 130.557 534.988C129.333 534.988 128.289 535.432 127.425 536.32C126.585 537.184 126.165 538.384 126.165 539.92C126.165 541.456 126.585 542.68 127.425 543.592C128.289 544.48 129.333 544.924 130.557 544.924C131.781 544.924 132.813 544.48 133.653 543.592C134.517 542.704 134.949 541.492 134.949 539.956ZM153.19 529.624C154.606 529.624 155.842 529.912 156.898 530.488C157.978 531.064 158.806 531.82 159.382 532.756V529.912H165.538V549.964C165.538 551.812 165.166 553.48 164.422 554.968C163.702 556.48 162.586 557.68 161.074 558.568C159.586 559.456 157.726 559.9 155.494 559.9C152.518 559.9 150.106 559.192 148.258 557.776C146.41 556.384 145.354 554.488 145.09 552.088H151.174C151.366 552.856 151.822 553.456 152.542 553.888C153.262 554.344 154.15 554.572 155.206 554.572C156.478 554.572 157.486 554.2 158.23 553.456C158.998 552.736 159.382 551.572 159.382 549.964V547.12C158.782 548.056 157.954 548.824 156.898 549.424C155.842 550 154.606 550.288 153.19 550.288C151.534 550.288 150.034 549.868 148.69 549.028C147.346 548.164 146.278 546.952 145.486 545.392C144.718 543.808 144.334 541.984 144.334 539.92C144.334 537.856 144.718 536.044 145.486 534.484C146.278 532.924 147.346 531.724 148.69 530.884C150.034 530.044 151.534 529.624 153.19 529.624ZM159.382 539.956C159.382 538.42 158.95 537.208 158.086 536.32C157.246 535.432 156.214 534.988 154.99 534.988C153.766 534.988 152.722 535.432 151.858 536.32C151.018 537.184 150.598 538.384 150.598 539.92C150.598 541.456 151.018 542.68 151.858 543.592C152.722 544.48 153.766 544.924 154.99 544.924C156.214 544.924 157.246 544.48 158.086 543.592C158.95 542.704 159.382 541.492 159.382 539.956ZM188.928 539.632C188.928 540.208 188.892 540.808 188.82 541.432H174.888C174.984 542.68 175.38 543.64 176.076 544.312C176.796 544.96 177.672 545.284 178.704 545.284C180.24 545.284 181.308 544.636 181.908 543.34H188.46C188.124 544.66 187.512 545.848 186.624 546.904C185.76 547.96 184.668 548.788 183.348 549.388C182.028 549.988 180.552 550.288 178.92 550.288C176.952 550.288 175.2 549.868 173.664 549.028C172.128 548.188 170.928 546.988 170.064 545.428C169.2 543.868 168.768 542.044 168.768 539.956C168.768 537.868 169.188 536.044 170.028 534.484C170.892 532.924 172.092 531.724 173.628 530.884C175.164 530.044 176.928 529.624 178.92 529.624C180.864 529.624 182.592 530.032 184.104 530.848C185.616 531.664 186.792 532.828 187.632 534.34C188.496 535.852 188.928 537.616 188.928 539.632ZM182.628 538.012C182.628 536.956 182.268 536.116 181.548 535.492C180.828 534.868 179.928 534.556 178.848 534.556C177.816 534.556 176.94 534.856 176.22 535.456C175.524 536.056 175.092 536.908 174.924 538.012H182.628ZM222.412 550H216.256L205.96 534.412V550H199.804V524.728H205.96L216.256 540.388V524.728H222.412V550ZM236.019 550.288C234.051 550.288 232.275 549.868 230.691 549.028C229.131 548.188 227.895 546.988 226.983 545.428C226.095 543.868 225.651 542.044 225.651 539.956C225.651 537.892 226.107 536.08 227.019 534.52C227.931 532.936 229.179 531.724 230.763 530.884C232.347 530.044 234.123 529.624 236.091 529.624C238.059 529.624 239.835 530.044 241.419 530.884C243.003 531.724 244.251 532.936 245.163 534.52C246.075 536.08 246.531 537.892 246.531 539.956C246.531 542.02 246.063 543.844 245.127 545.428C244.215 546.988 242.955 548.188 241.347 549.028C239.763 549.868 237.987 550.288 236.019 550.288ZM236.019 544.96C237.195 544.96 238.191 544.528 239.007 543.664C239.847 542.8 240.267 541.564 240.267 539.956C240.267 538.348 239.859 537.112 239.043 536.248C238.251 535.384 237.267 534.952 236.091 534.952C234.891 534.952 233.895 535.384 233.103 536.248C232.311 537.088 231.915 538.324 231.915 539.956C231.915 541.564 232.299 542.8 233.067 543.664C233.859 544.528 234.843 544.96 236.019 544.96ZM260.992 544.78V550H257.86C255.628 550 253.888 549.46 252.64 548.38C251.392 547.276 250.768 545.488 250.768 543.016V535.024H248.32V529.912H250.768V525.016H256.924V529.912H260.956V535.024H256.924V543.088C256.924 543.688 257.068 544.12 257.356 544.384C257.644 544.648 258.124 544.78 258.796 544.78H260.992ZM288.502 524.728V529.66H278.206V534.988H285.91V539.776H278.206V550H272.05V524.728H288.502ZM300.882 550.288C298.914 550.288 297.138 549.868 295.554 549.028C293.994 548.188 292.758 546.988 291.846 545.428C290.958 543.868 290.514 542.044 290.514 539.956C290.514 537.892 290.97 536.08 291.882 534.52C292.794 532.936 294.042 531.724 295.626 530.884C297.21 530.044 298.986 529.624 300.954 529.624C302.922 529.624 304.698 530.044 306.282 530.884C307.866 531.724 309.114 532.936 310.026 534.52C310.938 536.08 311.394 537.892 311.394 539.956C311.394 542.02 310.926 543.844 309.99 545.428C309.078 546.988 307.818 548.188 306.21 549.028C304.626 549.868 302.85 550.288 300.882 550.288ZM300.882 544.96C302.058 544.96 303.054 544.528 303.87 543.664C304.71 542.8 305.13 541.564 305.13 539.956C305.13 538.348 304.722 537.112 303.906 536.248C303.114 535.384 302.13 534.952 300.954 534.952C299.754 534.952 298.758 535.384 297.966 536.248C297.174 537.088 296.778 538.324 296.778 539.956C296.778 541.564 297.162 542.8 297.93 543.664C298.722 544.528 299.706 544.96 300.882 544.96ZM334.496 529.912V550H328.34V547.264C327.716 548.152 326.864 548.872 325.784 549.424C324.728 549.952 323.552 550.216 322.256 550.216C320.72 550.216 319.364 549.88 318.188 549.208C317.012 548.512 316.1 547.516 315.452 546.22C314.804 544.924 314.48 543.4 314.48 541.648V529.912H320.6V540.82C320.6 542.164 320.948 543.208 321.644 543.952C322.34 544.696 323.276 545.068 324.452 545.068C325.652 545.068 326.6 544.696 327.296 543.952C327.992 543.208 328.34 542.164 328.34 540.82V529.912H334.496ZM351.158 529.696C353.51 529.696 355.382 530.464 356.774 532C358.19 533.512 358.898 535.6 358.898 538.264V550H352.778V539.092C352.778 537.748 352.43 536.704 351.734 535.96C351.038 535.216 350.102 534.844 348.926 534.844C347.75 534.844 346.814 535.216 346.118 535.96C345.422 536.704 345.074 537.748 345.074 539.092V550H338.918V529.912H345.074V532.576C345.698 531.688 346.538 530.992 347.594 530.488C348.65 529.96 349.838 529.696 351.158 529.696ZM361.951 539.92C361.951 537.856 362.335 536.044 363.103 534.484C363.895 532.924 364.963 531.724 366.307 530.884C367.651 530.044 369.151 529.624 370.807 529.624C372.127 529.624 373.327 529.9 374.407 530.452C375.511 531.004 376.375 531.748 376.999 532.684V523.36H383.155V550H376.999V547.12C376.423 548.08 375.595 548.848 374.515 549.424C373.459 550 372.223 550.288 370.807 550.288C369.151 550.288 367.651 549.868 366.307 549.028C364.963 548.164 363.895 546.952 363.103 545.392C362.335 543.808 361.951 541.984 361.951 539.92ZM376.999 539.956C376.999 538.42 376.567 537.208 375.703 536.32C374.863 535.432 373.831 534.988 372.607 534.988C371.383 534.988 370.339 535.432 369.475 536.32C368.635 537.184 368.215 538.384 368.215 539.92C368.215 541.456 368.635 542.68 369.475 543.592C370.339 544.48 371.383 544.924 372.607 544.924C373.831 544.924 374.863 544.48 375.703 543.592C376.567 542.704 376.999 541.492 376.999 539.956ZM395.709 523.828L394.989 541.072H389.769L389.049 523.828H395.709ZM392.469 550.288C391.389 550.288 390.501 549.976 389.805 549.352C389.133 548.704 388.797 547.912 388.797 546.976C388.797 546.016 389.133 545.212 389.805 544.564C390.501 543.916 391.389 543.592 392.469 543.592C393.525 543.592 394.389 543.916 395.061 544.564C395.757 545.212 396.105 546.016 396.105 546.976C396.105 547.912 395.757 548.704 395.061 549.352C394.389 549.976 393.525 550.288 392.469 550.288ZM409.807 523.828L409.087 541.072H403.867L403.147 523.828H409.807ZM406.567 550.288C405.487 550.288 404.599 549.976 403.903 549.352C403.231 548.704 402.895 547.912 402.895 546.976C402.895 546.016 403.231 545.212 403.903 544.564C404.599 543.916 405.487 543.592 406.567 543.592C407.623 543.592 408.487 543.916 409.159 544.564C409.855 545.212 410.203 546.016 410.203 546.976C410.203 547.912 409.855 548.704 409.159 549.352C408.487 549.976 407.623 550.288 406.567 550.288Z" fill="url(#paint0_linear_860_715)"/>
<path d="M73.6133 133.292L75.7354 137.669L80.51 138.332L77.0617 141.78L77.8575 146.555L73.6133 144.3L69.2366 146.555L70.0323 141.78L66.584 138.332L71.3586 137.669L73.6133 133.292Z" fill="#EBEBEB"/>
<path d="M502.803 337.938L504.925 342.315L509.7 342.978L506.251 346.294L507.047 351.068L502.803 348.814L498.559 351.068L499.355 346.294L495.906 342.978L500.681 342.315L502.803 337.938Z" fill="#F5F5F5"/>
<path d="M417.787 464.069L419.909 468.313L424.684 469.109L421.236 472.424L422.031 477.199L417.787 474.944L413.543 477.199L414.339 472.424L410.891 469.109L415.665 468.313L417.787 464.069Z" fill="#F5F5F5"/>
<path d="M223.22 56.3668L224.016 57.9583L225.74 58.2236C226.138 58.2236 226.403 58.8867 226.005 59.152L224.679 60.3456L224.944 62.0698C225.077 62.4677 224.547 62.8656 224.149 62.6003L222.557 61.8046L220.966 62.6003C220.568 62.8656 220.17 62.4677 220.17 62.0698L220.435 60.3456L219.109 59.152C218.843 58.8867 218.976 58.3562 219.374 58.2236L221.098 57.9583L221.894 56.3668C222.557 55.9689 223.088 55.9689 223.22 56.3668Z" fill="#EBEBEB"/>
<path d="M4.2495 443.379L5.04528 444.971L6.76946 445.236C7.16735 445.236 7.4326 445.899 7.03472 446.164L5.70843 447.358L5.97368 449.082C6.10631 449.48 5.57579 449.878 5.17791 449.613L3.58636 448.817L1.99481 449.613C1.59692 449.878 1.19903 449.48 1.19903 449.082L1.46429 447.358L0.138003 446.164C-0.127255 445.899 0.00537413 445.368 0.403262 445.236L2.12744 444.971L3.18847 443.379C3.45373 442.981 3.98424 442.981 4.2495 443.379Z" fill="#F5F5F5"/>
<path d="M40.0601 39.2579L40.8558 40.8494L42.58 41.1147C42.9779 41.1147 43.2432 41.7778 42.8453 42.0431L41.519 43.2368L41.7842 44.9609C41.9169 45.3588 41.3863 45.7567 40.9885 45.4915L39.3969 44.6957L37.8054 45.4915C37.4075 45.7567 37.0096 45.3588 37.0096 44.9609L37.2748 43.2368L35.9485 42.0431C35.6833 41.7778 35.8159 41.2473 36.2138 41.1147L37.938 40.8494L38.7338 39.2579C39.2643 38.86 39.7948 38.86 40.0601 39.2579Z" fill="#EBEBEB"/>
<path d="M36.0816 360.618C37.0338 360.618 37.8058 359.846 37.8058 358.894C37.8058 357.942 37.0338 357.17 36.0816 357.17C35.1294 357.17 34.3574 357.942 34.3574 358.894C34.3574 359.846 35.1294 360.618 36.0816 360.618Z" fill="#EBEBEB"/>
<path d="M287.414 139.923C288.366 139.923 289.138 139.151 289.138 138.199C289.138 137.247 288.366 136.475 287.414 136.475C286.461 136.475 285.689 137.247 285.689 138.199C285.689 139.151 286.461 139.923 287.414 139.923Z" fill="#EBEBEB"/>
<path d="M196.031 42.441C196.983 42.441 197.755 41.6691 197.755 40.7169C197.755 39.7646 196.983 38.9927 196.031 38.9927C195.079 38.9927 194.307 39.7646 194.307 40.7169C194.307 41.6691 195.079 42.441 196.031 42.441Z" fill="#F5F5F5"/>
<path d="M198.283 470.833C203.631 470.833 207.965 466.498 207.965 461.151C207.965 455.804 203.631 451.469 198.283 451.469C192.936 451.469 188.602 455.804 188.602 461.151C188.602 466.498 192.936 470.833 198.283 470.833Z" fill="#F0F0F0"/>
<path d="M194.968 455.448C192.846 455.448 190.989 456.111 189.397 457.305C188.867 458.499 188.602 459.825 188.602 461.151C188.602 466.589 192.978 470.833 198.416 470.833C200.273 470.833 201.997 470.303 203.456 469.507C204.252 468.181 204.65 466.589 204.65 464.998C204.517 459.692 200.273 455.448 194.968 455.448Z" fill="#E6E6E6"/>
<path d="M119.505 291.651H38.7344V255.178L119.505 159.288H158.101V257.301H178.128V291.651H158.101V321.493H119.505V291.651ZM119.505 257.301V207.167L76.7989 257.301H119.505Z" fill="url(#paint1_linear_860_715)"/>
<path d="M191.92 241.12C191.92 210.748 197.358 189.66 208.233 177.458C219.109 165.389 235.82 159.288 258.102 159.288C268.845 159.288 277.598 160.614 284.495 163.266C291.392 165.919 296.962 169.367 301.339 173.612C305.716 177.856 309.164 182.365 311.684 187.007C314.204 191.649 316.193 197.087 317.785 203.32C320.703 215.257 322.294 227.592 322.294 240.457C322.294 269.37 317.387 290.59 307.572 303.986C297.758 317.381 280.914 324.146 257.041 324.146C243.645 324.146 232.77 322.023 224.547 317.779C216.324 313.535 209.56 307.169 204.254 298.946C200.408 293.11 197.358 285.02 195.236 274.808C192.981 264.728 191.92 253.454 191.92 241.12ZM235.82 241.252C235.82 261.545 237.677 275.471 241.258 282.898C244.839 290.325 250.011 294.039 256.908 294.039C261.418 294.039 265.264 292.447 268.58 289.264C271.895 286.081 274.283 281.174 275.874 274.277C277.466 267.513 278.261 256.903 278.261 242.446C278.261 221.225 276.405 207.034 272.824 199.739C269.243 192.445 263.805 188.864 256.643 188.864C249.348 188.864 244.043 192.577 240.727 200.005C237.544 207.432 235.82 221.093 235.82 241.252Z" fill="url(#paint2_linear_860_715)"/>
<path d="M416.593 291.651H335.822V255.178L416.593 159.288H455.188V257.301H475.215V291.651H455.188V321.493H416.593V291.651ZM416.593 257.301V207.167L373.887 257.301H416.593Z" fill="url(#paint3_linear_860_715)"/>
<g opacity="0.3">
<path d="M187.678 105.838C189.07 105.838 190.198 104.71 190.198 103.318C190.198 101.927 189.07 100.798 187.678 100.798C186.286 100.798 185.158 101.927 185.158 103.318C185.158 104.71 186.286 105.838 187.678 105.838Z" fill="#039AB0"/>
<path d="M20.4332 198.546C21.3854 198.546 22.1573 197.774 22.1573 196.822C22.1573 195.87 21.3854 195.098 20.4332 195.098C19.4809 195.098 18.709 195.87 18.709 196.822C18.709 197.774 19.4809 198.546 20.4332 198.546Z" fill="#039AB0"/>
<path d="M309.698 454.255C311.089 454.255 312.218 453.127 312.218 451.735C312.218 450.343 311.089 449.215 309.698 449.215C308.306 449.215 307.178 450.343 307.178 451.735C307.178 453.127 308.306 454.255 309.698 454.255Z" fill="#039AB0"/>
<path d="M369.91 352.263C370.862 352.263 371.634 351.491 371.634 350.539C371.634 349.586 370.862 348.814 369.91 348.814C368.957 348.814 368.186 349.586 368.186 350.539C368.186 351.491 368.957 352.263 369.91 352.263Z" fill="#039AB0"/>
<path d="M484.503 38.7277C485.456 38.7277 486.228 37.9557 486.228 37.0035C486.228 36.0512 485.456 35.2793 484.503 35.2793C483.551 35.2793 482.779 36.0512 482.779 37.0035C482.779 37.9557 483.551 38.7277 484.503 38.7277Z" fill="#039AB0"/>
<path d="M150.941 3.44836C151.893 3.44836 152.665 2.67642 152.665 1.72418C152.665 0.771945 151.893 0 150.941 0C149.989 0 149.217 0.771945 149.217 1.72418C149.217 2.67642 149.989 3.44836 150.941 3.44836Z" fill="#039AB0"/>
<path d="M291.923 93.503C292.876 93.503 293.648 92.7311 293.648 91.7788C293.648 90.8266 292.876 90.0547 291.923 90.0547C290.971 90.0547 290.199 90.8266 290.199 91.7788C290.199 92.7311 290.971 93.503 291.923 93.503Z" fill="#039AB0"/>
</g>
<path d="M110.886 93.6355C126.927 93.6355 139.931 80.6313 139.931 64.5897C139.931 48.5482 126.927 35.5439 110.886 35.5439C94.8441 35.5439 81.8398 48.5482 81.8398 64.5897C81.8398 80.6313 94.8441 93.6355 110.886 93.6355Z" fill="#EE5243"/>
<path opacity="0.7" d="M110.886 93.6355C126.927 93.6355 139.931 80.6313 139.931 64.5897C139.931 48.5482 126.927 35.5439 110.886 35.5439C94.8441 35.5439 81.8398 48.5482 81.8398 64.5897C81.8398 80.6313 94.8441 93.6355 110.886 93.6355Z" fill="#00525C"/>
<path opacity="0.2" d="M100.937 42.5732C96.8252 42.5732 92.9789 43.369 89.5306 44.9606C84.7559 50.1331 81.9707 57.0298 81.9707 64.5897C81.9707 80.6378 94.9684 93.6354 111.016 93.6354C115.128 93.6354 118.974 92.8397 122.555 91.2481C127.197 86.0756 130.115 79.1789 130.115 71.7516C129.982 55.5709 116.985 42.5732 100.937 42.5732Z" fill="#4BA1B1"/>
<path opacity="0.2" d="M95.3655 52.9184C96.8305 52.9184 98.0181 51.7308 98.0181 50.2659C98.0181 48.8009 96.8305 47.6133 95.3655 47.6133C93.9005 47.6133 92.7129 48.8009 92.7129 50.2659C92.7129 51.7308 93.9005 52.9184 95.3655 52.9184Z" fill="#00CAC4"/>
<path opacity="0.2" d="M126.668 50.2661C128.133 50.2661 129.321 49.0785 129.321 47.6135C129.321 46.1485 128.133 44.9609 126.668 44.9609C125.203 44.9609 124.016 46.1485 124.016 47.6135C124.016 49.0785 125.203 50.2661 126.668 50.2661Z" fill="#00CEB5"/>
<path opacity="0.2" d="M119.637 70.9562C122.054 70.9562 124.013 68.9966 124.013 66.5794C124.013 64.1622 122.054 62.2026 119.637 62.2026C117.219 62.2026 115.26 64.1622 115.26 66.5794C115.26 68.9966 117.219 70.9562 119.637 70.9562Z" fill="#00CEB5"/>
<path opacity="0.2" d="M104.385 84.7495C107.607 84.7495 110.22 82.1368 110.22 78.9138C110.22 75.6908 107.607 73.0781 104.385 73.0781C101.162 73.0781 98.5488 75.6908 98.5488 78.9138C98.5488 82.1368 101.162 84.7495 104.385 84.7495Z" fill="#00CEB5"/>
<path d="M430.518 434.626C444.581 434.626 455.982 423.225 455.982 409.161C455.982 395.097 444.581 383.696 430.518 383.696C416.454 383.696 405.053 395.097 405.053 409.161C405.053 423.225 416.454 434.626 430.518 434.626Z" fill="#039BB0"/>
<path opacity="0.4" d="M446.568 389.399C444.313 388.736 441.793 388.338 439.273 388.338C425.215 388.338 413.809 399.744 413.809 413.803C413.809 421.76 417.522 428.922 423.225 433.564C425.48 434.228 428 434.625 430.52 434.625C444.579 434.625 455.985 423.219 455.985 409.161C455.985 401.203 452.404 394.174 446.568 389.399Z" fill="#486267"/>
<path d="M406.115 416.721C378.926 429.586 399.219 439.4 437.549 425.607C473.093 412.874 486.621 396.694 454.923 401.734C456.515 408.63 412.084 425.872 406.115 416.721Z" fill="url(#paint4_linear_860_715)"/>
<path opacity="0.2" d="M446.307 159.288C410.63 183.426 364.475 215.124 351.742 291.651H349.09C361.424 216.053 405.988 183.426 441.665 159.288H446.307Z" fill="black"/>
<path d="M261.819 398.683C239.272 398.683 216.991 388.47 206.115 371.892C199.351 361.679 191.659 340.061 214.869 311.413L216.991 313.137C200.545 333.429 197.627 353.854 208.502 370.433C221.765 390.725 253.066 400.937 279.724 393.643C307.046 386.216 323.757 362.342 325.349 328.389C330.786 211.941 392.724 175.998 437.818 149.871C465.936 133.557 486.228 121.886 481.718 97.0842C481.055 93.6358 479.729 91.2485 477.474 89.7896C471.639 85.9433 460.365 88.5959 447.367 91.6464C421.77 97.6147 386.756 105.838 365.801 70.2931L368.055 68.9668C387.95 102.787 420.576 95.2274 446.704 89.1264C460.365 85.9433 472.169 83.1581 478.801 87.6675C481.586 89.5243 483.443 92.4422 484.106 96.6863C488.88 123.345 466.864 136.077 438.879 152.258C394.183 178.121 333.041 213.665 327.603 328.655C325.879 363.934 308.637 388.603 280.122 396.428C274.286 397.887 268.053 398.683 261.819 398.683Z" fill="#EE5243"/>
<path d="M261.819 398.683C239.272 398.683 216.991 388.47 206.115 371.892C199.351 361.679 191.659 340.061 214.869 311.413L216.991 313.137C200.545 333.429 197.627 353.854 208.502 370.433C221.765 390.725 253.066 400.937 279.724 393.643C307.046 386.216 323.757 362.342 325.349 328.389C330.786 211.941 392.724 175.998 437.818 149.871C465.936 133.557 486.228 121.886 481.718 97.0842C481.055 93.6358 479.729 91.2485 477.474 89.7896C471.639 85.9433 460.365 88.5959 447.367 91.6464C421.77 97.6147 386.756 105.838 365.801 70.2931L368.055 68.9668C387.95 102.787 420.576 95.2274 446.704 89.1264C460.365 85.9433 472.169 83.1581 478.801 87.6675C481.586 89.5243 483.443 92.4422 484.106 96.6863C488.88 123.345 466.864 136.077 438.879 152.258C394.183 178.121 333.041 213.665 327.603 328.655C325.879 363.934 308.637 388.603 280.122 396.428C274.286 397.887 268.053 398.683 261.819 398.683Z" fill="url(#paint5_linear_860_715)"/>
<path d="M338.479 38.7275C347.63 38.5949 356.516 41.5127 356.516 41.5127C356.516 41.5127 371.105 66.447 372.829 72.1501C372.166 77.7205 362.75 87.0045 362.75 87.0045L338.479 38.7275Z" fill="#00CEB7"/>
<path d="M381.586 159.685C376.148 152.788 370.711 145.626 366.201 137.934C365.14 136.077 364.079 134.088 363.018 132.098C362.488 131.037 361.957 129.844 361.427 128.65C360.896 127.589 359.968 126.13 359.835 125.069C358.244 108.225 363.947 95.8905 358.509 82.3623L336.625 90.8506C336.625 90.8506 338.482 114.856 342.726 129.313C345.379 138.199 351.347 145.892 357.05 153.054C358.907 155.308 360.631 157.563 362.355 159.818C364.079 161.94 365.936 163.929 367.66 166.051C370.18 169.234 371.109 172.285 369.119 176.131C368.986 176.396 368.854 176.529 368.854 176.794C368.323 177.723 370.843 178.916 372.567 176.794C375.22 173.346 374.822 173.611 377.21 170.693C378.668 168.969 380.26 166.98 381.586 165.388C382.913 163.797 382.913 161.409 381.586 159.685Z" fill="#8FE7F8"/>
<path opacity="0.3" d="M376.279 152.789C373.361 156.37 367.393 160.879 364.74 162.736C365.271 163.399 365.934 164.063 366.464 164.726C371.902 161.145 376.146 156.635 377.738 154.778C377.34 154.115 376.809 153.452 376.279 152.789Z" fill="#00CEB7"/>
<path opacity="0.3" d="M381.587 159.686C381.587 159.553 381.454 159.553 381.454 159.553C380.526 160.482 379.862 162.073 379.73 163.797C379.597 164.991 379.862 166.052 380.26 166.98C380.658 166.45 381.056 165.919 381.454 165.522C382.913 163.797 382.913 161.41 381.587 159.686Z" fill="#2E9499"/>
<path d="M333.175 54.7762C330.92 58.092 328.135 61.4077 324.687 64.3255C322.962 65.7845 320.973 67.1107 318.851 68.3044C317.79 68.8349 316.596 69.3654 315.403 69.7633L314.474 70.0286L314.209 70.1612C313.944 70.1612 313.811 70.2938 313.546 70.2938C313.148 70.4265 312.75 70.4265 312.352 70.4265C310.893 70.5591 309.832 70.2938 309.036 70.1612C307.312 69.7633 306.251 69.1002 305.19 68.437C304.129 67.7739 303.201 67.2434 302.272 66.5802C300.548 65.2539 298.957 63.9277 297.498 62.6014C294.58 59.8162 291.927 56.8983 289.54 53.7152C288.479 52.2563 288.744 50.1342 290.203 49.0732C291.397 48.2774 292.856 48.1448 293.917 48.9406H294.049C297.232 50.93 300.283 53.0521 303.466 54.9089C305.058 55.8373 306.516 56.7657 307.975 57.4288C308.771 57.8267 309.434 58.092 310.097 58.3572C310.761 58.6225 311.424 58.7551 311.556 58.7551C311.689 58.7551 311.556 58.6225 311.026 58.6225C310.893 58.6225 310.761 58.6225 310.628 58.6225C310.495 58.6225 310.495 58.6225 310.363 58.7551L310.761 58.4899C311.291 58.2246 311.954 57.8267 312.485 57.4288C313.678 56.6331 314.739 55.7047 315.8 54.6436C317.923 52.5216 320.045 49.7363 322.299 46.9511C324.554 44.0333 328.798 43.6354 331.583 45.8901C334.634 47.8795 335.164 51.8584 333.175 54.7762Z" fill="#8FE7F8"/>
<path d="M284.766 46.0224L286.358 48.675C286.358 48.675 287.551 52.1234 289.939 52.7865L296.437 50.6644L296.172 50.1339C295.376 48.9403 295.376 46.4203 295.774 44.4309C296.039 42.4414 294.978 42.3088 294.183 42.8393C293.785 43.1046 293.387 44.033 293.122 45.094C292.856 44.6961 292.458 44.2983 292.061 43.9004L290.071 41.9109C289.275 41.1152 287.816 40.9825 287.021 41.7783L285.429 43.2372C284.368 43.9004 284.235 45.094 284.766 46.0224Z" fill="#EE5243"/>
<path opacity="0.7" d="M284.766 46.0224L286.358 48.675C286.358 48.675 287.551 52.1234 289.939 52.7865L296.437 50.6644L296.172 50.1339C295.376 48.9403 295.376 46.4203 295.774 44.4309C296.039 42.4414 294.978 42.3088 294.183 42.8393C293.785 43.1046 293.387 44.033 293.122 45.094C292.856 44.6961 292.458 44.2983 292.061 43.9004L290.071 41.9109C289.275 41.1152 287.816 40.9825 287.021 41.7783L285.429 43.2372C284.368 43.9004 284.235 45.094 284.766 46.0224Z" fill="#68E1F8"/>
<path d="M344.979 36.4731C338.878 37.932 330.39 41.513 324.687 45.094C322.698 46.4203 321.637 48.8076 322.167 51.0623C324.687 63.5294 330.523 80.3733 336.889 90.9837L366.2 78.9144C366.465 73.7419 359.303 57.0306 352.009 40.8498C350.55 37.932 348.03 35.8099 344.979 36.4731Z" fill="#8FE7F8"/>
<path d="M342.99 23.3427C340.602 18.7007 335.297 16.446 329.064 16.9765C323.758 17.3744 319.116 22.8122 319.647 25.73C320.177 28.6479 324.687 29.8415 325.483 30.9026L321.769 33.5552C319.912 34.8815 319.514 37.4014 320.973 39.2582C322.565 41.2477 324.554 43.2371 325.748 44.696C335.96 44.4308 343.388 40.5845 346.173 36.8709C345.112 32.0962 345.377 27.9847 342.99 23.3427Z" fill="#8FE7F8"/>
<path d="M328.664 39.9209C334.231 39.9209 338.744 35.408 338.744 29.841C338.744 24.2741 334.231 19.7612 328.664 19.7612C323.097 19.7612 318.584 24.2741 318.584 29.841C318.584 35.408 323.097 39.9209 328.664 39.9209Z" fill="#263238"/>
<path d="M424.157 145.759C424.025 141.382 423.76 141.78 423.76 138.066C423.627 135.812 423.627 133.292 423.627 131.17C423.627 129.048 422.168 127.191 420.046 126.793C418.322 126.395 416.465 126.13 414.741 125.732C412.486 125.201 410.231 124.671 407.977 124.008C406.253 123.477 404.528 122.947 402.804 122.284C400.947 121.62 399.223 120.957 397.366 120.162C395.244 119.233 393.255 118.305 391.133 117.376C388.878 116.315 386.623 115.122 384.369 113.928C375.615 99.4715 375.483 89.9221 366.066 78.7812L345.906 87.9328C345.906 87.9328 360.628 114.193 370.708 125.201C376.544 131.568 385.562 134.485 393.653 136.608C399.488 138.066 405.457 139.26 411.425 140.321C413.68 140.719 416.2 140.852 418.189 142.311C419.781 143.372 420.576 145.096 420.974 146.953C421.107 147.35 421.107 147.748 421.24 148.014C421.505 149.207 424.29 148.412 424.157 145.759Z" fill="#8FE7F8"/>
<path opacity="0.3" d="M413.946 125.599C413.15 125.466 412.354 125.201 411.558 125.068C411.558 129.71 409.436 137.535 408.641 139.923C409.436 140.055 410.365 140.188 411.161 140.453C413.548 134.087 413.946 127.456 413.946 125.599Z" fill="#00CEB7"/>
<path opacity="0.3" d="M423.626 131.17C423.626 129.048 422.167 127.191 420.045 126.793C419.647 126.66 419.249 126.66 418.719 126.528C418.851 127.721 419.647 129.18 420.841 130.374C421.637 131.17 422.698 131.7 423.493 131.833C423.626 131.7 423.626 131.435 423.626 131.17Z" fill="#2E9499"/>
<path d="M336.09 26.2604C336.62 28.2499 334.366 30.3719 332.509 28.6478C331.05 27.1888 328.795 24.9341 327.071 23.7405C325.214 22.5468 327.734 20.5574 330.652 21.3532C333.437 22.1489 335.559 24.271 336.09 26.2604Z" fill="#8FE7F8"/>
<path d="M336.357 90.4527C335.428 90.8506 337.152 92.4422 337.152 92.4422C337.152 92.4422 355.72 86.076 366.994 79.5771C367.126 78.2509 366.065 77.4551 366.065 77.4551C366.065 77.4551 352.272 84.4844 336.357 90.4527Z" fill="#00D69B"/>
<path d="M350.017 35.6776C353.73 37.5344 357.179 39.5238 360.494 41.6459C362.219 42.7069 363.943 43.7679 365.534 44.9616C367.259 46.1553 368.85 47.3489 370.574 48.8079L371.237 49.3384L372.033 50.0015C372.564 50.532 372.962 50.9299 373.359 51.4604C373.757 51.991 374.155 52.3888 374.553 52.7867C374.951 53.1846 375.216 53.7151 375.614 54.113C376.94 55.8372 378.001 57.694 379.063 59.4182C381.052 62.9992 382.909 66.5802 384.368 70.4264C385.031 72.1506 384.102 74.14 382.378 74.6705C381.052 75.201 379.726 74.8032 378.797 73.8748V73.7421C376.145 70.9569 373.625 67.9065 370.972 65.1212C368.452 62.336 365.8 59.5508 363.678 58.3571C360.627 56.5003 357.311 54.6435 353.996 52.7867L343.916 47.2163C340.733 45.4921 339.539 41.3806 341.396 38.1975C342.855 35.1471 346.834 34.086 350.017 35.6776Z" fill="#8FE7F8"/>
<path d="M387.421 76.9248L386.36 74.1396C386.36 74.1396 385.697 70.5586 383.442 69.4976L376.81 70.5586L377.076 71.0891C377.739 72.4154 377.208 74.8027 376.678 76.7922C376.015 78.7816 377.076 78.9142 378.004 78.649C378.535 78.3837 378.933 77.5879 379.463 76.6595C379.728 77.19 379.994 77.5879 380.259 77.9858L381.85 80.2405C382.513 81.1689 383.84 81.4342 384.901 80.771L386.758 79.5774C387.553 79.1795 387.819 77.9858 387.421 76.9248Z" fill="#EE5243"/>
<path opacity="0.8" d="M387.421 76.9248L386.36 74.1396C386.36 74.1396 385.697 70.5586 383.442 69.4976L376.81 70.5586L377.076 71.0891C377.739 72.4154 377.208 74.8027 376.678 76.7922C376.015 78.7816 377.076 78.9142 378.004 78.649C378.535 78.3837 378.933 77.5879 379.463 76.6595C379.728 77.19 379.994 77.5879 380.259 77.9858L381.85 80.2405C382.513 81.1689 383.84 81.4342 384.901 80.771L386.758 79.5774C387.553 79.1795 387.819 77.9858 387.421 76.9248Z" fill="#68E1F8"/>
<path opacity="0.3" d="M344.316 50.9292L342.725 51.0618L332.777 75.0677C333.308 75.0677 333.838 75.0677 334.369 74.9351C334.369 74.9351 347.367 70.1604 351.213 68.3036C348.693 62.8658 344.316 50.9292 344.316 50.9292Z" fill="#007856"/>
<path d="M326.277 57.1628C326.808 61.5395 330.124 70.6909 332.909 74.9351C337.816 73.2109 345.906 70.1604 349.753 68.3036C347.1 62.8658 344.315 55.306 342.856 50.9292C338.612 51.3271 329.46 54.7754 326.277 57.1628Z" fill="#68E1F8"/>
<path opacity="0.3" d="M332.776 64.8547C334.681 64.8547 336.225 63.3108 336.225 61.4064C336.225 59.5019 334.681 57.958 332.776 57.958C330.872 57.958 329.328 59.5019 329.328 61.4064C329.328 63.3108 330.872 64.8547 332.776 64.8547Z" fill="#007856"/>
<path opacity="0.6" d="M337.549 58.4893C338.135 58.4893 338.61 58.0142 338.61 57.4282C338.61 56.8422 338.135 56.3672 337.549 56.3672C336.963 56.3672 336.488 56.8422 336.488 57.4282C336.488 58.0142 336.963 58.4893 337.549 58.4893Z" fill="#007856"/>
<path opacity="0.6" d="M340.469 57.4277C341.055 57.4277 341.53 56.9527 341.53 56.3667C341.53 55.7807 341.055 55.3057 340.469 55.3057C339.883 55.3057 339.408 55.7807 339.408 56.3667C339.408 56.9527 339.883 57.4277 340.469 57.4277Z" fill="#007856"/>
<path opacity="0.5" d="M345.775 66.9772L333.44 71.7518L332.777 69.3645L344.979 64.5898L345.775 66.9772Z" fill="#007856"/>
<path opacity="0.2" d="M278.133 251.332C277.867 261.279 277.072 268.972 275.878 274.41C274.286 281.174 271.899 286.214 268.583 289.397C265.268 292.58 261.421 294.171 256.912 294.171C250.148 294.171 244.843 290.458 241.262 283.031C240.731 281.837 240.201 280.378 239.67 278.919C232.11 285.418 225.081 292.58 218.582 300.14L211.553 308.495C215.399 312.342 219.643 315.525 224.55 318.045C232.773 322.289 243.649 324.411 257.044 324.411C259.432 324.411 261.687 324.411 263.941 324.278C272.032 312.209 278.796 299.344 283.968 285.816L303.73 234.488L278.133 251.332Z" fill="black"/>
<path d="M100.543 321.36C107.97 328.787 123.753 344.57 123.753 344.57L188.741 283.295C166.327 274.807 122.825 299.078 100.543 321.36Z" fill="#263238"/>
<path d="M181.446 402.264C174.019 394.837 158.236 379.054 158.236 379.054L219.511 314.065C227.999 336.347 203.728 379.982 181.446 402.264Z" fill="#263238"/>
<path d="M270.309 255.974L295.641 207.167L246.833 232.499C231.183 240.589 216.727 250.934 203.862 263.003L120.703 341.387L161.553 382.237L239.937 299.078C251.873 286.081 262.218 271.624 270.309 255.974Z" fill="#8FE7F8"/>
<path d="M218.316 301.598C227.765 301.598 235.425 293.938 235.425 284.489C235.425 275.04 227.765 267.38 218.316 267.38C208.867 267.38 201.207 275.04 201.207 284.489C201.207 293.938 208.867 301.598 218.316 301.598Z" fill="white"/>
<path d="M218.317 295.497C224.396 295.497 229.325 290.569 229.325 284.489C229.325 278.41 224.396 273.481 218.317 273.481C212.237 273.481 207.309 278.41 207.309 284.489C207.309 290.569 212.237 295.497 218.317 295.497Z" fill="url(#paint6_linear_860_715)"/>
<path opacity="0.3" d="M175.214 367.515L135.293 327.461L168.052 296.691L206.117 334.755L175.214 367.515Z" fill="#00D0B0"/>
<path d="M109.562 357.966C79.588 360.354 69.6408 379.585 66.3251 405.05C64.6009 418.047 63.8052 431.178 52.9296 438.87C49.8791 440.992 51.338 445.634 55.0516 445.634C95.2383 444.44 114.072 424.679 116.459 416.456C115.663 421.628 114.469 425.74 113.143 429.056C111.817 432.371 115.398 435.422 118.448 433.565C129.722 426.536 143.913 413.405 144.842 392.317C136.486 380.513 109.562 357.966 109.562 357.966Z" fill="#EE5243"/>
<path d="M109.562 357.966C79.588 360.354 69.6408 379.585 66.3251 405.05C64.6009 418.047 63.8052 431.178 52.9296 438.87C49.8791 440.992 51.338 445.634 55.0516 445.634C95.2383 444.44 114.072 424.679 116.459 416.456C115.663 421.628 114.469 425.74 113.143 429.056C111.817 432.371 115.398 435.422 118.448 433.565C129.722 426.536 143.913 413.405 144.842 392.317C136.486 380.513 109.562 357.966 109.562 357.966Z" fill="url(#paint7_linear_860_715)"/>
<path d="M149.484 401.335L101.473 353.323L127.07 347.753L154.922 375.738L149.484 401.335Z" fill="url(#paint8_linear_860_715)"/>
<defs>
<linearGradient id="paint0_linear_860_715" x1="254.431" y1="523.36" x2="254.431" y2="559.9" gradientUnits="userSpaceOnUse">
<stop stop-color="#00D894"/>
<stop offset="1" stop-color="#00BBF5"/>
</linearGradient>
<linearGradient id="paint1_linear_860_715" x1="108.431" y1="159.288" x2="108.431" y2="321.493" gradientUnits="userSpaceOnUse">
<stop stop-color="#00D894"/>
<stop offset="1" stop-color="#00BBF5"/>
</linearGradient>
<linearGradient id="paint2_linear_860_715" x1="257.107" y1="159.288" x2="257.107" y2="324.146" gradientUnits="userSpaceOnUse">
<stop stop-color="#00D894"/>
<stop offset="1" stop-color="#00BBF5"/>
</linearGradient>
<linearGradient id="paint3_linear_860_715" x1="405.519" y1="159.288" x2="405.519" y2="321.493" gradientUnits="userSpaceOnUse">
<stop stop-color="#00D894"/>
<stop offset="1" stop-color="#00BBF5"/>
</linearGradient>
<linearGradient id="paint4_linear_860_715" x1="433.192" y1="400.79" x2="433.192" y2="432.298" gradientUnits="userSpaceOnUse">
<stop stop-color="#00D894"/>
<stop offset="1" stop-color="#00BBF5"/>
</linearGradient>
<linearGradient id="paint5_linear_860_715" x1="342.004" y1="68.9668" x2="342.004" y2="398.683" gradientUnits="userSpaceOnUse">
<stop stop-color="#00D894"/>
<stop offset="1" stop-color="#00BBF5"/>
</linearGradient>
<linearGradient id="paint6_linear_860_715" x1="218.317" y1="273.481" x2="218.317" y2="295.497" gradientUnits="userSpaceOnUse">
<stop stop-color="#00D894"/>
<stop offset="1" stop-color="#00BBF5"/>
</linearGradient>
<linearGradient id="paint7_linear_860_715" x1="98.0616" y1="357.966" x2="98.0616" y2="445.634" gradientUnits="userSpaceOnUse">
<stop stop-color="#00D894"/>
<stop offset="1" stop-color="#00BBF5"/>
</linearGradient>
<linearGradient id="paint8_linear_860_715" x1="128.198" y1="347.753" x2="128.198" y2="401.335" gradientUnits="userSpaceOnUse">
<stop stop-color="#00D894"/>
<stop offset="1" stop-color="#00BBF5"/>
</linearGradient>
</defs>
</svg>
