<svg class="brand-title mt-3" xmlns="http://www.w3.org/2000/svg" width="267.761" height="61.967" viewBox="0 0 267.761 61.967">
  <g id="splash_logo" transform="translate(-48.491 -85.293)">
    <g id="g10" transform="translate(48.492 85.293)">
      <path id="svg_1" d="M175.09,306.03l15.923,24v21.776h10.161V330.032l15.923-24H206.936l-10.844,16.344-10.84-16.344Zm102.2,0v45.778h10.161V334.752L300,351.808l12.545-17.055v17.055h10.165V306.03L312.7,319.64,300,336.9,287.3,319.64Zm59.106,0v45.778h10.161V334.752L359.1,351.808l12.545-17.055v17.055h10.165V306.03L371.8,319.64,359.1,336.9l-12.7-17.262Zm-94.592.064-5.742,10.336-19.682,35.442h12.2L242.159,327.4l13.59,24.467h11.484l-19.328-34.8Zm175.621,0-5.746,10.336L392,351.871h12.2L417.776,327.4l13.59,24.467h11.484l-19.328-34.8ZM352.908,359.74v6.31h.763v-2.722a1.586,1.586,0,0,1,.223-.477,2.2,2.2,0,0,1,.346-.37,1.509,1.509,0,0,1,.425-.242,1.112,1.112,0,0,1,.449-.1.827.827,0,0,1,.711.346,1.829,1.829,0,0,1,.242,1.037v2.523h.759v-2.7a3.462,3.462,0,0,0-.079-.743,1.973,1.973,0,0,0-.23-.6,1.369,1.369,0,0,0-.441-.4,1.5,1.5,0,0,0-.676-.147,1.944,1.944,0,0,0-1,.274,1.914,1.914,0,0,0-.727.771V359.74Zm24.88,0v5.42a.905.905,0,0,0,.25.7.928.928,0,0,0,.7.25,2.267,2.267,0,0,0,.457-.052,2.388,2.388,0,0,0,.453-.127l-.123-.616a1.238,1.238,0,0,1-.242.079,1.286,1.286,0,0,1-.223.024.49.49,0,0,1-.382-.139.551.551,0,0,1-.131-.4V359.74Zm41.156,0v5.42a.92.92,0,0,0,.25.7.934.934,0,0,0,.7.25,2.335,2.335,0,0,0,.461-.052,2.429,2.429,0,0,0,.449-.127l-.123-.616a1.157,1.157,0,0,1-.242.079,1.249,1.249,0,0,1-.223.024.49.49,0,0,1-.381-.139.551.551,0,0,1-.131-.4V359.74Zm-72.347.171v.691h5.015v-.691Zm61.113.123v1.5h-.616v.6h.616v3.036a.83.83,0,0,0,.3.719,1.129,1.129,0,0,0,.715.223,2.5,2.5,0,0,0,.35-.024,1.764,1.764,0,0,0,.31-.079,2.385,2.385,0,0,0,.258-.1l.183-.083-.183-.608a1.8,1.8,0,0,1-.258.123,1.036,1.036,0,0,1-.405.068.51.51,0,0,1-.346-.111.428.428,0,0,1-.167-.362v-2.806h1.013v-.6H408.47v-1.5Zm-58.991,1.347v4.669h.775v-4.669Zm11.838.079a2.34,2.34,0,0,0-1.669.691,2.225,2.225,0,0,0-.477.743,2.59,2.59,0,0,0,0,1.808,2.285,2.285,0,0,0,1.2,1.252,2.245,2.245,0,0,0,.93.183,2.346,2.346,0,0,0,.652-.087,1.9,1.9,0,0,0,.56-.234,1.93,1.93,0,0,0,.449-.362,1.7,1.7,0,0,0,.314-.457l-.66-.183a.9.9,0,0,1-.207.31,1.144,1.144,0,0,1-.3.234,1.378,1.378,0,0,1-.374.155,1.575,1.575,0,0,1-.405.052,1.32,1.32,0,0,1-.56-.111,1.341,1.341,0,0,1-.469-.31,1.5,1.5,0,0,1-.338-.477,1.693,1.693,0,0,1-.155-.616H362.8c0-.024.008-.068.008-.119s.012-.1.012-.175a2.481,2.481,0,0,0-.167-.862,2.231,2.231,0,0,0-.449-.735,2.355,2.355,0,0,0-.719-.509,2.236,2.236,0,0,0-.922-.191Zm7.816,0a2.268,2.268,0,0,0-.926.191,2.385,2.385,0,0,0-.715.509,2.35,2.35,0,0,0-.632,1.641,2.4,2.4,0,0,0,.163.894,2.219,2.219,0,0,0,1.176,1.252,2.361,2.361,0,0,0,1.86,0,2.224,2.224,0,0,0,.727-.509,2.264,2.264,0,0,0,.465-.743,2.435,2.435,0,0,0-.008-1.792,2.4,2.4,0,0,0-.465-.743,2.355,2.355,0,0,0-.719-.509,2.324,2.324,0,0,0-.926-.191Zm6.322,0a2.2,2.2,0,0,0-1.1.286,1.968,1.968,0,0,0-.771.759v-.97h-.691v4.514h.759v-2.722a1.616,1.616,0,0,1,.234-.477,1.789,1.789,0,0,1,.366-.37,1.631,1.631,0,0,1,.437-.242,1.251,1.251,0,0,1,.469-.1.755.755,0,0,1,.664.326,1.961,1.961,0,0,1,.227,1.057v2.523h.759v-2.7a4.093,4.093,0,0,0-.068-.751,1.8,1.8,0,0,0-.215-.6,1.056,1.056,0,0,0-.417-.4A1.323,1.323,0,0,0,374.7,361.46Zm22.086,0a3.139,3.139,0,0,0-1.756.588l.254.493a2.552,2.552,0,0,1,1.435-.529,1.089,1.089,0,0,1,1.192,1.184v.362a3.47,3.47,0,0,0-.6-.163,4.294,4.294,0,0,0-.668-.06,2.755,2.755,0,0,0-.767.1,2,2,0,0,0-.608.286,1.135,1.135,0,0,0-.385.441,1.117,1.117,0,0,0-.139.56,1.326,1.326,0,0,0,.111.564,1.308,1.308,0,0,0,.318.441,1.41,1.41,0,0,0,.485.3,1.707,1.707,0,0,0,.6.1,2.382,2.382,0,0,0,.985-.207,1.9,1.9,0,0,0,.771-.624l.02.322a.546.546,0,0,0,.155.326.48.48,0,0,0,.362.131,1.121,1.121,0,0,0,.163-.008.866.866,0,0,0,.2-.028v-.656c-.163,0-.242-.1-.242-.278v-1.84a1.8,1.8,0,0,0-.5-1.343A1.944,1.944,0,0,0,396.783,361.46Zm16.193,0a2.249,2.249,0,0,0-.922.191,2.355,2.355,0,0,0-.719.509,2.4,2.4,0,0,0-.632,1.641,2.323,2.323,0,0,0,.167.894,2.2,2.2,0,0,0,1.172,1.252,2.157,2.157,0,0,0,.934.191,2.133,2.133,0,0,0,.926-.191,2.224,2.224,0,0,0,.727-.509,2.341,2.341,0,0,0,.469-.743,2.567,2.567,0,0,0,.163-.894,2.456,2.456,0,0,0-.64-1.641,2.355,2.355,0,0,0-.719-.509A2.324,2.324,0,0,0,412.976,361.46Zm10.964,0a2.261,2.261,0,0,0-2.146,1.435,2.59,2.59,0,0,0,0,1.808,2.132,2.132,0,0,0,.477.743,2.07,2.07,0,0,0,.727.509,2.264,2.264,0,0,0,.934.183,2.338,2.338,0,0,0,.648-.087,1.9,1.9,0,0,0,.56-.234,1.928,1.928,0,0,0,.449-.362A1.7,1.7,0,0,0,425.9,365l-.656-.183a.97.97,0,0,1-.211.31,1.144,1.144,0,0,1-.3.234,1.328,1.328,0,0,1-.374.155,1.554,1.554,0,0,1-.405.052,1.32,1.32,0,0,1-.56-.111,1.341,1.341,0,0,1-.469-.31,1.563,1.563,0,0,1-.338-.477,1.869,1.869,0,0,1-.155-.616h3.747c0-.024.008-.068.008-.119s.008-.1.008-.175a2.477,2.477,0,0,0-.163-.862,2.309,2.309,0,0,0-.453-.735,2.386,2.386,0,0,0-.715-.509A2.269,2.269,0,0,0,423.94,361.46Zm5.337,0a3.139,3.139,0,0,0-1.756.588l.25.493a2.573,2.573,0,0,1,1.438-.529A1.089,1.089,0,0,1,430.4,363.2v.362a3.574,3.574,0,0,0-.6-.163,4.3,4.3,0,0,0-.668-.06,2.755,2.755,0,0,0-.767.1,2,2,0,0,0-.608.286,1.18,1.18,0,0,0-.389.441,1.157,1.157,0,0,0-.135.56,1.326,1.326,0,0,0,.111.564,1.266,1.266,0,0,0,.322.441,1.356,1.356,0,0,0,.481.3,1.707,1.707,0,0,0,.6.1,2.383,2.383,0,0,0,.986-.207,1.9,1.9,0,0,0,.771-.624l.016.322a.575.575,0,0,0,.159.326.481.481,0,0,0,.362.131,1.12,1.12,0,0,0,.163-.008.924.924,0,0,0,.2-.028v-.656c-.167,0-.242-.1-.242-.278v-1.84a1.8,1.8,0,0,0-.5-1.343A1.944,1.944,0,0,0,429.276,361.46Zm9.9,0a2.227,2.227,0,0,0-1.109.286,1.994,1.994,0,0,0-.771.759v-.97h-.691v4.514h.763v-2.722a1.526,1.526,0,0,1,.234-.477,1.771,1.771,0,0,1,.362-.37,1.714,1.714,0,0,1,.441-.242,1.217,1.217,0,0,1,.465-.1.762.762,0,0,1,.668.326,1.961,1.961,0,0,1,.227,1.057v2.523h.759v-2.7a4.093,4.093,0,0,0-.068-.751,1.8,1.8,0,0,0-.219-.6,1.072,1.072,0,0,0-.413-.4A1.334,1.334,0,0,0,439.179,361.46Zm-4.117.044a1.518,1.518,0,0,0-.811.326,1.994,1.994,0,0,0-.616.755v-1.049h-.707v4.514h.759v-2.786a1.521,1.521,0,0,1,.616-.767,2.04,2.04,0,0,1,1.009-.294v-.691c-.032,0-.068-.008-.1-.008Zm-54.965.032,1.911,4.514c-.1.27-.191.485-.258.648a3.347,3.347,0,0,1-.191.382.543.543,0,0,1-.167.191.3.3,0,0,1-.179.044,1.511,1.511,0,0,1-.175-.008.859.859,0,0,1-.227-.028v.676a1.294,1.294,0,0,0,.2.036,1.121,1.121,0,0,0,.163.008,1.173,1.173,0,0,0,.771-.227,1.348,1.348,0,0,0,.405-.536l2.2-5.7h-.727l-1.4,3.831-1.538-3.831Zm6.966,0,1.919,4.514h.632l.9-2.205.91,2.205h.632l1.919-4.514h-.735l-1.55,3.763-.759-1.876.767-1.88h-.628l-.556,1.446-.552-1.446h-.632l.779,1.88-.759,1.876-1.558-3.763Zm12.708,0,1.911,4.514c-.1.27-.191.485-.258.648a3.351,3.351,0,0,1-.191.382.539.539,0,0,1-.163.191.312.312,0,0,1-.183.044,1.511,1.511,0,0,1-.175-.008.81.81,0,0,1-.223-.028v.676a1.182,1.182,0,0,0,.2.036,1.121,1.121,0,0,0,.163.008,1.173,1.173,0,0,0,.771-.227,1.347,1.347,0,0,0,.405-.536l2.2-5.7H403.5l-1.4,3.831-1.542-3.831Zm-39.213.493a1.583,1.583,0,0,1,1.037.409,1.491,1.491,0,0,1,.338.465,1.749,1.749,0,0,1,.163.588h-3.06a1.568,1.568,0,0,1,.473-1.045,1.394,1.394,0,0,1,.477-.3,1.485,1.485,0,0,1,.572-.115Zm63.382,0a1.563,1.563,0,0,1,.572.115,1.587,1.587,0,0,1,.465.294,1.491,1.491,0,0,1,.338.465,1.662,1.662,0,0,1,.163.588h-3.06a1.644,1.644,0,0,1,.147-.588,1.582,1.582,0,0,1,.33-.457,1.376,1.376,0,0,1,.473-.3,1.5,1.5,0,0,1,.572-.115Zm-55.565.087a1.319,1.319,0,0,1,.58.131,1.532,1.532,0,0,1,.485.362,1.614,1.614,0,0,1,.318.536,1.8,1.8,0,0,1,.123.648,1.829,1.829,0,0,1-.123.668,1.614,1.614,0,0,1-.318.536,1.509,1.509,0,0,1-.485.354,1.32,1.32,0,0,1-.58.131,1.354,1.354,0,0,1-.588-.131,1.422,1.422,0,0,1-.473-.354,1.573,1.573,0,0,1-.322-.529,1.749,1.749,0,0,1-.111-.656,1.827,1.827,0,0,1,.111-.66,1.739,1.739,0,0,1,.322-.536,1.445,1.445,0,0,1,.473-.362A1.361,1.361,0,0,1,368.374,362.116Zm44.6,0a1.3,1.3,0,0,1,.58.131,1.533,1.533,0,0,1,.485.362,1.693,1.693,0,0,1,.322.536,1.889,1.889,0,0,1,.119.648,1.916,1.916,0,0,1-.119.668,1.693,1.693,0,0,1-.322.536,1.509,1.509,0,0,1-.485.354,1.3,1.3,0,0,1-.58.131,1.324,1.324,0,0,1-.584-.131,1.479,1.479,0,0,1-.477-.354,1.573,1.573,0,0,1-.322-.529,1.832,1.832,0,0,1-.111-.656,1.917,1.917,0,0,1,.111-.66,1.738,1.738,0,0,1,.322-.536,1.5,1.5,0,0,1,.477-.362A1.331,1.331,0,0,1,412.976,362.116Zm-16.217,1.677a3.256,3.256,0,0,1,1.148.219v.664a.479.479,0,0,1-.163.338,1.258,1.258,0,0,1-.536.405,1.779,1.779,0,0,1-.755.147.962.962,0,0,1-.385-.068.846.846,0,0,1-.322-.191.8.8,0,0,1-.207-.286.783.783,0,0,1-.072-.354.733.733,0,0,1,.358-.632,1.7,1.7,0,0,1,.934-.242Zm32.494,0a3.256,3.256,0,0,1,1.148.219v.664a.479.479,0,0,1-.163.338,1.234,1.234,0,0,1-.536.405,1.779,1.779,0,0,1-.755.147.962.962,0,0,1-.385-.068.845.845,0,0,1-.322-.191.8.8,0,0,1-.207-.286.783.783,0,0,1-.072-.354.733.733,0,0,1,.358-.632,1.7,1.7,0,0,1,.934-.242Zm12.939,1.287v.97h.64v-.97Z" transform="translate(-175.09 -306.03)" fill="#fff"></path>
    </g>
  </g>
</svg>