<svg class="logo-abbr" xmlns="http://www.w3.org/2000/svg" xmlns:xlink="http://www.w3.org/1999/xlink" width="75" height="75" viewBox="0 0 75 75">
  <defs>
    <clipPath id="clip-path">
      <rect id="Rectangle_2549" data-name="Rectangle 2549" width="54" height="31" transform="translate(-0.433 0.449)" fill="#fff"></rect>
    </clipPath>
  </defs>
  <g id="ya" transform="translate(-134 -244)">
    <g id="Path_6075" data-name="Path 6075" transform="translate(134 244)" fill="none">
      <path d="M37.5,0A37.5,37.5,0,1,1,0,37.5,37.5,37.5,0,0,1,37.5,0Z" stroke="none"></path>
      <path d="M 37.5 4 C 32.97576141357422 4 28.58898544311523 4.885185241699219 24.46152114868164 6.630958557128906 C 20.47283935546875 8.318023681640625 16.88980102539062 10.73405456542969 13.81192016601562 13.81192016601562 C 10.73405456542969 16.88980102539062 8.318023681640625 20.47283935546875 6.630958557128906 24.46152114868164 C 4.885185241699219 28.58898544311523 4 32.97576141357422 4 37.5 C 4 42.02423858642578 4.885185241699219 46.4110107421875 6.630958557128906 50.53848266601562 C 8.318023681640625 54.52716064453125 10.73405456542969 58.11019897460938 13.81192016601562 61.18807983398438 C 16.88980102539062 64.26594543457031 20.47283935546875 66.68197631835938 24.46152114868164 68.36904144287109 C 28.58898544311523 70.11481475830078 32.97576141357422 71 37.5 71 C 42.02423858642578 71 46.4110107421875 70.11481475830078 50.53848266601562 68.36904144287109 C 54.52716064453125 66.68197631835938 58.11019897460938 64.26594543457031 61.18807983398438 61.18807983398438 C 64.26594543457031 58.11019897460938 66.68197631835938 54.52716064453125 68.36904144287109 50.53848266601562 C 70.11481475830078 46.4110107421875 71 42.02423858642578 71 37.5 C 71 32.97576141357422 70.11481475830078 28.58898544311523 68.36904144287109 24.46152114868164 C 66.68197631835938 20.47283935546875 64.26594543457031 16.88980102539062 61.18807983398438 13.81192016601562 C 58.11019897460938 10.73405456542969 54.52716064453125 8.318023681640625 50.53848266601562 6.630958557128906 C 46.4110107421875 4.885185241699219 42.02423858642578 4 37.5 4 M 37.5 0 C 58.21067810058594 0 75 16.78932189941406 75 37.5 C 75 58.21067810058594 58.21067810058594 75 37.5 75 C 16.78932189941406 75 0 58.21067810058594 0 37.5 C 0 16.78932189941406 16.78932189941406 0 37.5 0 Z" stroke="none" fill="#fff"></path>
    </g>
    <g id="Mask_Group_7" data-name="Mask Group 7" transform="translate(146.433 265.551)" clip-path="url(#clip-path)">
      <g id="g10" transform="translate(2.739 3.22)">
        <path id="svg_1" d="M175.09,306.03l8.515,12.835V330.51h5.434V318.865l8.515-12.835H192.12l-5.8,8.74-5.8-8.74Zm54.653,0v24.48h5.434V321.39l6.709,9.121,6.709-9.121v9.121h5.436V306.03l-5.353,7.278-6.792,9.231-6.789-9.231Zm31.607,0v24.48h5.434V321.39l6.709,9.121,6.709-9.121v9.121h5.436V306.03l-5.353,7.278-6.792,9.231-6.789-9.231Zm-50.584.034-3.071,5.527-10.525,18.953h6.522l7.263-13.084,7.268,13.084h6.141l-10.336-18.611Zm93.915,0-3.073,5.527-10.525,18.953h6.522l7.263-13.084,7.268,13.084h6.141l-10.336-18.611Zm-34.5,28.688v3.375h.408V336.67a.849.849,0,0,1,.119-.255,1.178,1.178,0,0,1,.185-.2.807.807,0,0,1,.227-.13.594.594,0,0,1,.24-.051.442.442,0,0,1,.38.185.978.978,0,0,1,.13.555v1.349h.406v-1.443a1.852,1.852,0,0,0-.043-.4,1.055,1.055,0,0,0-.123-.323.732.732,0,0,0-.236-.212.8.8,0,0,0-.361-.079,1.04,1.04,0,0,0-.535.147,1.023,1.023,0,0,0-.389.412v-1.479Zm13.3,0v2.9a.484.484,0,0,0,.134.374.5.5,0,0,0,.374.134,1.214,1.214,0,0,0,.244-.028,1.277,1.277,0,0,0,.242-.068l-.066-.329a.663.663,0,0,1-.13.043.688.688,0,0,1-.119.013.262.262,0,0,1-.2-.074.3.3,0,0,1-.07-.212v-2.75Zm22.009,0v2.9a.492.492,0,0,0,.134.374.5.5,0,0,0,.374.134,1.25,1.25,0,0,0,.247-.028,1.3,1.3,0,0,0,.24-.068l-.066-.329a.62.62,0,0,1-.13.043.668.668,0,0,1-.119.013.262.262,0,0,1-.2-.074.294.294,0,0,1-.07-.212v-2.75Zm-38.688.091v.37h2.682v-.37Zm32.68.066v.8h-.329v.319h.329v1.624a.444.444,0,0,0,.162.385.6.6,0,0,0,.382.119,1.334,1.334,0,0,0,.187-.013.94.94,0,0,0,.166-.042,1.272,1.272,0,0,0,.138-.051l.1-.045-.1-.325a.954.954,0,0,1-.138.066.553.553,0,0,1-.217.036.273.273,0,0,1-.185-.06.229.229,0,0,1-.089-.193v-1.5h.542v-.319h-.542v-.8Zm-31.546.72v2.5h.414v-2.5Zm6.33.042a1.251,1.251,0,0,0-.893.37,1.19,1.19,0,0,0-.255.4,1.385,1.385,0,0,0,0,.967,1.222,1.222,0,0,0,.644.669,1.2,1.2,0,0,0,.5.1,1.255,1.255,0,0,0,.348-.047,1.016,1.016,0,0,0,.3-.125,1.032,1.032,0,0,0,.24-.193.908.908,0,0,0,.168-.244l-.353-.1a.482.482,0,0,1-.111.166.612.612,0,0,1-.161.125.738.738,0,0,1-.2.083.842.842,0,0,1-.217.028.707.707,0,0,1-.3-.059.717.717,0,0,1-.251-.166.8.8,0,0,1-.181-.255.9.9,0,0,1-.083-.329h2c0-.013,0-.036,0-.064s.006-.055.006-.093a1.327,1.327,0,0,0-.089-.461,1.193,1.193,0,0,0-.24-.393,1.259,1.259,0,0,0-.385-.272A1.2,1.2,0,0,0,274.27,335.672Zm4.18,0a1.213,1.213,0,0,0-.5.1,1.276,1.276,0,0,0-.382.272,1.257,1.257,0,0,0-.338.878,1.282,1.282,0,0,0,.087.478,1.186,1.186,0,0,0,.629.669,1.263,1.263,0,0,0,.994,0,1.189,1.189,0,0,0,.389-.272,1.21,1.21,0,0,0,.249-.4,1.3,1.3,0,0,0,0-.958,1.28,1.28,0,0,0-.249-.4,1.259,1.259,0,0,0-.385-.272A1.243,1.243,0,0,0,278.45,335.672Zm3.381,0a1.177,1.177,0,0,0-.591.153,1.052,1.052,0,0,0-.412.406v-.519h-.37v2.414h.406V336.67a.864.864,0,0,1,.125-.255.957.957,0,0,1,.2-.2.872.872,0,0,1,.234-.13.669.669,0,0,1,.251-.051.4.4,0,0,1,.355.174,1.049,1.049,0,0,1,.121.565v1.349h.406v-1.443a2.188,2.188,0,0,0-.036-.4.962.962,0,0,0-.115-.319.565.565,0,0,0-.223-.212A.707.707,0,0,0,281.831,335.672Zm11.811,0a1.679,1.679,0,0,0-.939.314l.136.264a1.364,1.364,0,0,1,.767-.283.582.582,0,0,1,.638.633v.193a1.853,1.853,0,0,0-.319-.087,2.3,2.3,0,0,0-.357-.032,1.474,1.474,0,0,0-.41.055,1.07,1.07,0,0,0-.325.153.607.607,0,0,0-.206.236.6.6,0,0,0-.074.3.709.709,0,0,0,.06.3.7.7,0,0,0,.17.236.754.754,0,0,0,.259.161.913.913,0,0,0,.319.055,1.274,1.274,0,0,0,.527-.111,1.016,1.016,0,0,0,.412-.334l.011.172a.292.292,0,0,0,.083.174.257.257,0,0,0,.193.07.6.6,0,0,0,.087,0,.462.462,0,0,0,.106-.015v-.351c-.087,0-.13-.051-.13-.149v-.984a.96.96,0,0,0-.268-.718A1.039,1.039,0,0,0,293.642,335.672Zm8.659,0a1.2,1.2,0,0,0-.493.1,1.259,1.259,0,0,0-.385.272,1.283,1.283,0,0,0-.338.878,1.242,1.242,0,0,0,.089.478,1.174,1.174,0,0,0,.627.669,1.153,1.153,0,0,0,.5.1,1.14,1.14,0,0,0,.5-.1,1.189,1.189,0,0,0,.389-.272,1.252,1.252,0,0,0,.251-.4,1.373,1.373,0,0,0,.087-.478,1.313,1.313,0,0,0-.342-.878,1.259,1.259,0,0,0-.385-.272A1.243,1.243,0,0,0,302.3,335.672Zm5.863,0a1.209,1.209,0,0,0-1.147.767,1.385,1.385,0,0,0,0,.967,1.14,1.14,0,0,0,.255.4,1.107,1.107,0,0,0,.389.272,1.211,1.211,0,0,0,.5.1,1.251,1.251,0,0,0,.346-.047,1.016,1.016,0,0,0,.3-.125,1.031,1.031,0,0,0,.24-.193.909.909,0,0,0,.168-.244l-.351-.1a.518.518,0,0,1-.113.166.611.611,0,0,1-.161.125.711.711,0,0,1-.2.083.831.831,0,0,1-.217.028.707.707,0,0,1-.3-.059.718.718,0,0,1-.251-.166.836.836,0,0,1-.181-.255,1,1,0,0,1-.083-.329h2c0-.013,0-.036,0-.064s0-.055,0-.093a1.325,1.325,0,0,0-.087-.461,1.235,1.235,0,0,0-.242-.393,1.276,1.276,0,0,0-.382-.272A1.213,1.213,0,0,0,308.164,335.672Zm2.854,0a1.679,1.679,0,0,0-.939.314l.134.264a1.376,1.376,0,0,1,.769-.283.582.582,0,0,1,.638.633v.193a1.908,1.908,0,0,0-.319-.087,2.3,2.3,0,0,0-.357-.032,1.473,1.473,0,0,0-.41.055,1.071,1.071,0,0,0-.325.153.631.631,0,0,0-.208.236.619.619,0,0,0-.072.3.709.709,0,0,0,.06.3.677.677,0,0,0,.172.236.725.725,0,0,0,.257.161.913.913,0,0,0,.319.055,1.274,1.274,0,0,0,.527-.111,1.016,1.016,0,0,0,.412-.334l.009.172a.307.307,0,0,0,.085.174.257.257,0,0,0,.193.07.6.6,0,0,0,.087,0,.493.493,0,0,0,.108-.015v-.351c-.089,0-.13-.051-.13-.149v-.984a.961.961,0,0,0-.27-.718A1.039,1.039,0,0,0,311.018,335.672Zm5.3,0a1.19,1.19,0,0,0-.593.153,1.066,1.066,0,0,0-.412.406v-.519h-.37v2.414h.408V336.67a.817.817,0,0,1,.125-.255.948.948,0,0,1,.193-.2.916.916,0,0,1,.236-.13.65.65,0,0,1,.249-.051.408.408,0,0,1,.357.174,1.049,1.049,0,0,1,.121.565v1.349h.406v-1.443a2.188,2.188,0,0,0-.036-.4.962.962,0,0,0-.117-.319.573.573,0,0,0-.221-.212A.714.714,0,0,0,316.314,335.672Zm-2.2.023a.812.812,0,0,0-.434.174,1.066,1.066,0,0,0-.329.4v-.561h-.378v2.414h.406v-1.49a.814.814,0,0,1,.329-.41,1.091,1.091,0,0,1,.54-.157v-.37c-.017,0-.036,0-.055,0Zm-29.393.017,1.022,2.414c-.055.145-.1.259-.138.346a1.794,1.794,0,0,1-.1.2.29.29,0,0,1-.089.1.16.16,0,0,1-.1.023.808.808,0,0,1-.094,0,.461.461,0,0,1-.121-.015v.361a.69.69,0,0,0,.108.019.6.6,0,0,0,.087,0,.627.627,0,0,0,.412-.121.721.721,0,0,0,.217-.287l1.175-3.047h-.389l-.75,2.049-.822-2.049Zm3.725,0,1.026,2.414h.338l.48-1.179.487,1.179h.338l1.026-2.414h-.393l-.829,2.012-.406-1,.41-1.005h-.336l-.3.773-.3-.773h-.338l.417,1.005-.406,1-.833-2.012Zm6.8,0,1.022,2.414c-.055.145-.1.259-.138.346a1.8,1.8,0,0,1-.1.2.288.288,0,0,1-.087.1.167.167,0,0,1-.1.023.808.808,0,0,1-.094,0,.434.434,0,0,1-.119-.015v.361a.631.631,0,0,0,.106.019.6.6,0,0,0,.087,0,.627.627,0,0,0,.412-.121.72.72,0,0,0,.217-.287l1.175-3.047h-.389l-.748,2.049-.824-2.049Zm-20.97.264a.846.846,0,0,1,.555.219.8.8,0,0,1,.181.249.935.935,0,0,1,.087.315h-1.636a.839.839,0,0,1,.253-.559.746.746,0,0,1,.255-.161.8.8,0,0,1,.306-.062Zm33.894,0a.836.836,0,0,1,.306.062.849.849,0,0,1,.249.157.8.8,0,0,1,.181.249.888.888,0,0,1,.087.315H307.35a.88.88,0,0,1,.079-.315.846.846,0,0,1,.176-.244.737.737,0,0,1,.253-.161.8.8,0,0,1,.306-.062Zm-29.714.047a.706.706,0,0,1,.31.07.82.82,0,0,1,.259.193.863.863,0,0,1,.17.287.964.964,0,0,1,.066.346.979.979,0,0,1-.066.357.863.863,0,0,1-.17.287.807.807,0,0,1-.259.189.706.706,0,0,1-.31.07.724.724,0,0,1-.315-.07.761.761,0,0,1-.253-.189.841.841,0,0,1-.172-.283.935.935,0,0,1-.06-.351.977.977,0,0,1,.06-.353.93.93,0,0,1,.172-.287.773.773,0,0,1,.253-.193A.728.728,0,0,1,278.45,336.022Zm23.851,0a.693.693,0,0,1,.31.07.82.82,0,0,1,.259.193.905.905,0,0,1,.172.287,1.009,1.009,0,0,1,.064.346,1.024,1.024,0,0,1-.064.357.906.906,0,0,1-.172.287.807.807,0,0,1-.259.189.693.693,0,0,1-.31.07.708.708,0,0,1-.312-.07.791.791,0,0,1-.255-.189.841.841,0,0,1-.172-.283.979.979,0,0,1-.06-.351,1.024,1.024,0,0,1,.06-.353.929.929,0,0,1,.172-.287.8.8,0,0,1,.255-.193A.711.711,0,0,1,302.3,336.022Zm-8.672.9a1.741,1.741,0,0,1,.614.117v.355a.256.256,0,0,1-.087.181.673.673,0,0,1-.287.217.952.952,0,0,1-.4.079.515.515,0,0,1-.206-.036.452.452,0,0,1-.172-.1.429.429,0,0,1-.111-.153.418.418,0,0,1-.038-.189.392.392,0,0,1,.191-.338.911.911,0,0,1,.5-.13Zm17.376,0a1.741,1.741,0,0,1,.614.117v.355a.256.256,0,0,1-.087.181.66.66,0,0,1-.287.217.951.951,0,0,1-.4.079.514.514,0,0,1-.206-.036.452.452,0,0,1-.172-.1.43.43,0,0,1-.111-.153.418.418,0,0,1-.038-.189.392.392,0,0,1,.191-.338A.911.911,0,0,1,311.005,336.919Zm6.919.689v.518h.342v-.518Z" transform="translate(-175.09 -306.03)" fill="#fff"></path>
      </g>
    </g>
  </g>
</svg>