<svg xmlns="http://www.w3.org/2000/svg" width="300.152" height="69.463" viewBox="0 0 300.152 69.463">
  <g id="Teach-Mi_Logo" transform="translate(-48.491 -85.293)">
    <g id="g10" transform="translate(48.492 85.293)">
      <path id="svg_1" d="M175.09,306.03l17.849,26.905v24.411h11.39V332.935l17.849-26.905h-11.39l-12.156,18.321L186.48,306.03Zm114.565,0v51.316h11.39V338.227l14.063,19.119,14.063-19.119v19.119h11.395V306.03l-11.221,15.257-14.237,19.35-14.232-19.35Zm66.256,0v51.316H367.3V338.227l14.063,19.119,14.063-19.119v19.119h11.395V306.03L395.6,321.287l-14.237,19.35-14.232-19.35Zm-106.035.071-6.437,11.586-22.063,39.729h13.671l15.225-27.426,15.234,27.426h12.873L256.714,318.4Zm196.866,0L440.3,317.687l-22.063,39.729h13.671l15.225-27.426,15.234,27.426h12.873L453.575,318.4Zm-72.323,60.135v7.074h.855v-3.051a1.779,1.779,0,0,1,.249-.535,2.461,2.461,0,0,1,.388-.414,1.691,1.691,0,0,1,.477-.272,1.247,1.247,0,0,1,.5-.107.928.928,0,0,1,.8.388,2.051,2.051,0,0,1,.272,1.163v2.829h.851v-3.025a3.881,3.881,0,0,0-.089-.833,2.211,2.211,0,0,0-.258-.677,1.534,1.534,0,0,0-.494-.445,1.679,1.679,0,0,0-.757-.165,2.18,2.18,0,0,0-1.123.307,2.145,2.145,0,0,0-.815.864v-3.1Zm27.89,0v6.076a1.015,1.015,0,0,0,.281.784,1.041,1.041,0,0,0,.784.281,2.543,2.543,0,0,0,.512-.058,2.68,2.68,0,0,0,.508-.143l-.138-.69a1.388,1.388,0,0,1-.272.089,1.442,1.442,0,0,1-.249.027.549.549,0,0,1-.428-.156.618.618,0,0,1-.147-.445v-5.764Zm46.135,0v6.076a1.031,1.031,0,0,0,.281.784,1.047,1.047,0,0,0,.784.281,2.618,2.618,0,0,0,.517-.058,2.727,2.727,0,0,0,.5-.143l-.138-.69a1.3,1.3,0,0,1-.272.089,1.4,1.4,0,0,1-.249.027.549.549,0,0,1-.428-.156.618.618,0,0,1-.147-.445v-5.764Zm-81.1.192v.775h5.622v-.775Zm68.505.138v1.684h-.69v.668h.69v3.4a.93.93,0,0,0,.339.806,1.265,1.265,0,0,0,.8.249,2.8,2.8,0,0,0,.392-.027,1.977,1.977,0,0,0,.347-.089,2.677,2.677,0,0,0,.29-.107l.2-.094-.2-.682a2.013,2.013,0,0,1-.29.138,1.161,1.161,0,0,1-.454.076.571.571,0,0,1-.388-.125.479.479,0,0,1-.187-.405v-3.145h1.136v-.668H436.7v-1.684Zm-66.127,1.51v5.234h.869v-5.234Zm13.27.089a2.623,2.623,0,0,0-1.871.775,2.5,2.5,0,0,0-.535.833,2.9,2.9,0,0,0,0,2.027,2.561,2.561,0,0,0,1.35,1.4,2.517,2.517,0,0,0,1.042.2,2.63,2.63,0,0,0,.731-.1,2.13,2.13,0,0,0,.628-.263,2.162,2.162,0,0,0,.5-.405,1.907,1.907,0,0,0,.352-.512l-.739-.2a1.01,1.01,0,0,1-.232.347,1.282,1.282,0,0,1-.339.263,1.545,1.545,0,0,1-.419.174,1.767,1.767,0,0,1-.454.058,1.48,1.48,0,0,1-.628-.125,1.5,1.5,0,0,1-.526-.347,1.679,1.679,0,0,1-.379-.535,1.9,1.9,0,0,1-.174-.69h4.2c0-.027.009-.076.009-.134s.013-.116.013-.2a2.781,2.781,0,0,0-.187-.967,2.5,2.5,0,0,0-.5-.824,2.64,2.64,0,0,0-.806-.57,2.506,2.506,0,0,0-1.033-.214Zm8.762,0a2.542,2.542,0,0,0-1.038.214,2.674,2.674,0,0,0-.8.57,2.634,2.634,0,0,0-.708,1.84,2.688,2.688,0,0,0,.183,1,2.487,2.487,0,0,0,1.319,1.4,2.647,2.647,0,0,0,2.085,0,2.493,2.493,0,0,0,.815-.57,2.537,2.537,0,0,0,.521-.833,2.73,2.73,0,0,0-.009-2.009,2.684,2.684,0,0,0-.521-.833,2.64,2.64,0,0,0-.806-.57,2.6,2.6,0,0,0-1.038-.214Zm7.087,0a2.468,2.468,0,0,0-1.238.321,2.206,2.206,0,0,0-.864.851V368.25h-.775v5.06h.851v-3.051a1.812,1.812,0,0,1,.263-.535,2,2,0,0,1,.41-.414,1.827,1.827,0,0,1,.49-.272,1.4,1.4,0,0,1,.526-.107.846.846,0,0,1,.744.365,2.2,2.2,0,0,1,.254,1.185v2.829h.851v-3.025a4.589,4.589,0,0,0-.076-.842,2.016,2.016,0,0,0-.241-.668,1.184,1.184,0,0,0-.468-.445A1.483,1.483,0,0,0,398.843,368.166Zm24.758,0a3.519,3.519,0,0,0-1.969.659l.285.552a2.86,2.86,0,0,1,1.608-.592,1.221,1.221,0,0,1,1.336,1.327v.405a3.89,3.89,0,0,0-.668-.183,4.813,4.813,0,0,0-.748-.067,3.088,3.088,0,0,0-.86.116,2.242,2.242,0,0,0-.682.321,1.272,1.272,0,0,0-.432.494,1.252,1.252,0,0,0-.156.628,1.486,1.486,0,0,0,.125.632,1.466,1.466,0,0,0,.356.494,1.581,1.581,0,0,0,.543.339,1.913,1.913,0,0,0,.668.116,2.67,2.67,0,0,0,1.1-.232,2.13,2.13,0,0,0,.864-.7l.022.361a.613.613,0,0,0,.174.365.539.539,0,0,0,.405.147,1.254,1.254,0,0,0,.183-.009.971.971,0,0,0,.223-.031v-.735c-.183,0-.272-.107-.272-.312V370.2a2.013,2.013,0,0,0-.561-1.506A2.179,2.179,0,0,0,423.6,368.166Zm18.152,0a2.52,2.52,0,0,0-1.033.214,2.64,2.64,0,0,0-.806.57,2.689,2.689,0,0,0-.708,1.84,2.6,2.6,0,0,0,.187,1,2.461,2.461,0,0,0,1.314,1.4,2.418,2.418,0,0,0,1.047.214,2.391,2.391,0,0,0,1.038-.214,2.493,2.493,0,0,0,.815-.57,2.624,2.624,0,0,0,.526-.833,2.878,2.878,0,0,0,.183-1,2.753,2.753,0,0,0-.717-1.84,2.64,2.64,0,0,0-.806-.57A2.6,2.6,0,0,0,441.753,368.166Zm12.29,0a2.534,2.534,0,0,0-2.405,1.608,2.9,2.9,0,0,0,0,2.027,2.39,2.39,0,0,0,.535.833,2.32,2.32,0,0,0,.815.57,2.538,2.538,0,0,0,1.047.2,2.622,2.622,0,0,0,.726-.1,2.131,2.131,0,0,0,.628-.263,2.161,2.161,0,0,0,.5-.405,1.907,1.907,0,0,0,.352-.512l-.735-.2a1.087,1.087,0,0,1-.236.347,1.282,1.282,0,0,1-.339.263,1.488,1.488,0,0,1-.419.174,1.743,1.743,0,0,1-.454.058,1.48,1.48,0,0,1-.628-.125,1.5,1.5,0,0,1-.526-.347,1.752,1.752,0,0,1-.379-.535,2.1,2.1,0,0,1-.174-.69h4.2c0-.027.009-.076.009-.134s.009-.116.009-.2a2.777,2.777,0,0,0-.183-.967,2.588,2.588,0,0,0-.508-.824,2.674,2.674,0,0,0-.8-.57A2.543,2.543,0,0,0,454.043,368.166Zm5.982,0a3.519,3.519,0,0,0-1.969.659l.281.552a2.884,2.884,0,0,1,1.612-.592,1.221,1.221,0,0,1,1.336,1.327v.405a4,4,0,0,0-.668-.183,4.814,4.814,0,0,0-.748-.067,3.088,3.088,0,0,0-.86.116,2.243,2.243,0,0,0-.682.321,1.323,1.323,0,0,0-.437.494,1.3,1.3,0,0,0-.151.628,1.486,1.486,0,0,0,.125.632,1.419,1.419,0,0,0,.361.494,1.52,1.52,0,0,0,.539.339,1.913,1.913,0,0,0,.668.116,2.671,2.671,0,0,0,1.1-.232,2.13,2.13,0,0,0,.864-.7l.018.361a.645.645,0,0,0,.178.365.539.539,0,0,0,.405.147,1.253,1.253,0,0,0,.183-.009,1.036,1.036,0,0,0,.227-.031v-.735c-.187,0-.272-.107-.272-.312V370.2a2.015,2.015,0,0,0-.566-1.506A2.179,2.179,0,0,0,460.026,368.166Zm11.1,0a2.5,2.5,0,0,0-1.243.321,2.236,2.236,0,0,0-.864.851V368.25h-.775v5.06h.855v-3.051a1.711,1.711,0,0,1,.263-.535,1.984,1.984,0,0,1,.405-.414,1.92,1.92,0,0,1,.494-.272,1.364,1.364,0,0,1,.521-.107.854.854,0,0,1,.748.365,2.2,2.2,0,0,1,.254,1.185v2.829h.851v-3.025a4.589,4.589,0,0,0-.076-.842,2.017,2.017,0,0,0-.245-.668,1.2,1.2,0,0,0-.463-.445A1.5,1.5,0,0,0,471.126,368.166Zm-4.615.049a1.7,1.7,0,0,0-.909.365,2.236,2.236,0,0,0-.69.846V368.25h-.793v5.06h.851v-3.123a1.705,1.705,0,0,1,.69-.86,2.287,2.287,0,0,1,1.131-.33v-.775c-.036,0-.076-.009-.116-.009Zm-61.614.036,2.143,5.06c-.116.3-.214.543-.29.726a3.75,3.75,0,0,1-.214.428.609.609,0,0,1-.187.214.336.336,0,0,1-.2.049,1.7,1.7,0,0,1-.2-.009.963.963,0,0,1-.254-.031v.757a1.45,1.45,0,0,0,.227.04,1.258,1.258,0,0,0,.183.009,1.315,1.315,0,0,0,.864-.254,1.511,1.511,0,0,0,.454-.6l2.463-6.388h-.815l-1.572,4.294-1.724-4.294Zm7.809,0,2.152,5.06h.708l1.007-2.472,1.02,2.472h.708l2.152-5.06h-.824l-1.737,4.218-.851-2.1.86-2.107h-.7l-.624,1.621-.619-1.621h-.708l.873,2.107-.851,2.1-1.746-4.218Zm14.245,0,2.143,5.06c-.116.3-.214.543-.29.726a3.755,3.755,0,0,1-.214.428.6.6,0,0,1-.183.214.35.35,0,0,1-.2.049,1.7,1.7,0,0,1-.2-.009.907.907,0,0,1-.249-.031v.757a1.324,1.324,0,0,0,.223.04,1.258,1.258,0,0,0,.183.009,1.315,1.315,0,0,0,.864-.254,1.51,1.51,0,0,0,.454-.6l2.463-6.388h-.815l-1.568,4.294-1.728-4.294Zm-43.957.552a1.774,1.774,0,0,1,1.163.459,1.671,1.671,0,0,1,.379.521,1.961,1.961,0,0,1,.183.659h-3.43a1.758,1.758,0,0,1,.53-1.172,1.562,1.562,0,0,1,.535-.339,1.665,1.665,0,0,1,.641-.129Zm71.049,0a1.752,1.752,0,0,1,.641.129,1.78,1.78,0,0,1,.521.33,1.672,1.672,0,0,1,.379.521,1.863,1.863,0,0,1,.183.659h-3.43a1.843,1.843,0,0,1,.165-.659,1.774,1.774,0,0,1,.37-.512,1.542,1.542,0,0,1,.53-.339,1.682,1.682,0,0,1,.641-.129Zm-62.287.1a1.479,1.479,0,0,1,.65.147,1.717,1.717,0,0,1,.543.405,1.809,1.809,0,0,1,.356.6,2.021,2.021,0,0,1,.138.726,2.051,2.051,0,0,1-.138.748,1.81,1.81,0,0,1-.356.6,1.693,1.693,0,0,1-.543.4,1.48,1.48,0,0,1-.65.147,1.518,1.518,0,0,1-.659-.147,1.6,1.6,0,0,1-.53-.4,1.764,1.764,0,0,1-.361-.592,1.961,1.961,0,0,1-.125-.735,2.048,2.048,0,0,1,.125-.739,1.95,1.95,0,0,1,.361-.6,1.62,1.62,0,0,1,.53-.405A1.525,1.525,0,0,1,391.756,368.9Zm50,0a1.451,1.451,0,0,1,.65.147,1.718,1.718,0,0,1,.543.405,1.9,1.9,0,0,1,.361.6,2.117,2.117,0,0,1,.134.726,2.147,2.147,0,0,1-.134.748,1.9,1.9,0,0,1-.361.6,1.692,1.692,0,0,1-.543.4,1.452,1.452,0,0,1-.65.147,1.485,1.485,0,0,1-.655-.147,1.658,1.658,0,0,1-.535-.4,1.763,1.763,0,0,1-.361-.592,2.054,2.054,0,0,1-.125-.735,2.149,2.149,0,0,1,.125-.739,1.949,1.949,0,0,1,.361-.6,1.685,1.685,0,0,1,.535-.405A1.492,1.492,0,0,1,441.753,368.9Zm-18.179,1.88a3.65,3.65,0,0,1,1.287.245v.744a.537.537,0,0,1-.183.379,1.41,1.41,0,0,1-.6.454,2,2,0,0,1-.846.165,1.079,1.079,0,0,1-.432-.076.948.948,0,0,1-.361-.214.9.9,0,0,1-.232-.321.877.877,0,0,1-.08-.4.822.822,0,0,1,.4-.708,1.909,1.909,0,0,1,1.047-.272Zm36.424,0a3.649,3.649,0,0,1,1.287.245v.744a.537.537,0,0,1-.183.379,1.383,1.383,0,0,1-.6.454,1.994,1.994,0,0,1-.846.165,1.079,1.079,0,0,1-.432-.076.948.948,0,0,1-.361-.214.9.9,0,0,1-.232-.321.877.877,0,0,1-.08-.4.822.822,0,0,1,.4-.708A1.909,1.909,0,0,1,460,370.78Zm14.5,1.443v1.087h.717v-1.087Z" transform="translate(-175.09 -306.03)" fill="#67057c"/>
    </g>
  </g>
</svg>
