<svg width="21" height="15" viewBox="0 0 21 15" fill="none" xmlns="http://www.w3.org/2000/svg">
<path d="M10.5562 10.7689C12.3407 10.7689 13.7873 9.32232 13.7873 7.53787C13.7873 5.75341 12.3407 4.30682 10.5562 4.30682C8.77178 4.30682 7.3252 5.75341 7.3252 7.53787C7.3252 9.32232 8.77178 10.7689 10.5562 10.7689Z" stroke="#6E0580" stroke-width="1.5"/>
<path d="M19.3749 6.3898C19.7927 6.89815 20.0017 7.15124 20.0017 7.53789C20.0017 7.92454 19.7927 8.17764 19.3749 8.68599C17.8455 10.5428 14.4723 14 10.5563 14C6.64023 14 3.26702 10.5428 1.73766 8.68599C1.31978 8.17764 1.11084 7.92454 1.11084 7.53789C1.11084 7.15124 1.31978 6.89815 1.73766 6.3898C3.26702 4.53302 6.64023 1.07581 10.5563 1.07581C14.4723 1.07581 17.8455 4.53302 19.3749 6.3898Z" stroke="#6E0580" stroke-width="1.5"/>
</svg>
